<svg xmlns="http://www.w3.org/2000/svg" xmlns:xlink="http://www.w3.org/1999/xlink" viewBox="0 0 271.49 318.7"><defs><style>.cls-1{fill:none;}.cls-2{fill:#6464dd;}.cls-3{clip-path:url(#clip-path);}.cls-4{fill:#4343c4;}.cls-5{fill:#a5a5f2;}.cls-6{fill:#fff;}.cls-7{isolation:isolate;}.cls-8{clip-path:url(#clip-path-2);}.cls-9{fill:#0f054c;}.cls-10{fill:#1c157a;}.cls-11{fill:#ff2c9c;}.cls-12{fill:#42e8e0;}.cls-13{clip-path:url(#clip-path-3);}.cls-14{clip-path:url(#clip-path-4);}.cls-15{fill:#dedefc;}.cls-16{clip-path:url(#clip-path-5);}.cls-17{clip-path:url(#clip-path-6);}.cls-18{fill:#03f4d1;}.cls-19{fill:#cafff9;}.cls-20{fill:#1fc1b5;}.cls-21{clip-path:url(#clip-path-7);}.cls-22{fill:#ffaee0;}.cls-23{fill:#d81a87;}</style><clipPath id="clip-path" transform="translate(-312.16 -66.9)"><rect class="cls-1" width="600" height="400"/></clipPath><clipPath id="clip-path-2" transform="translate(-312.16 -66.9)"><polygon class="cls-1" points="343.54 244.15 344.13 36.14 567.86 165.31 567.27 373.32 343.54 244.15"/></clipPath><clipPath id="clip-path-3" transform="translate(-312.16 -66.9)"><polygon class="cls-1" points="549.38 142.43 549.46 111.86 583.66 131.6 583.57 162.18 549.38 142.43"/></clipPath><clipPath id="clip-path-4" transform="translate(-312.16 -66.9)"><polygon class="cls-1" points="505.52 94.39 505.61 63.76 539.88 83.55 539.8 114.18 505.52 94.39"/></clipPath><clipPath id="clip-path-5" transform="translate(-312.16 -66.9)"><path id="_Clipping_Path_" data-name="&lt;Clipping Path&gt;" class="cls-2" d="M544.14,348.31a29.27,29.27,0,0,0,14.41-3.41c3.24-1.87,5.1-4.28,5.1-6.61s-1.86-4.73-5.1-6.61a32.24,32.24,0,0,0-28.82,0c-3.25,1.88-5.11,4.29-5.1,6.61s1.85,4.74,5.1,6.61A29.27,29.27,0,0,0,544.14,348.31Z"/></clipPath><clipPath id="clip-path-6" transform="translate(-312.16 -66.9)"><polygon class="cls-1" points="312.15 178.79 312.23 148.22 346.44 167.97 346.35 198.54 312.15 178.79"/></clipPath><clipPath id="clip-path-7" transform="translate(-312.16 -66.9)"><polygon class="cls-1" points="336.82 241.56 336.91 211 371.11 230.74 371.02 261.3 336.82 241.56"/></clipPath></defs><title>Asset 2</title><g id="Layer_2" data-name="Layer 2"><g id="OBJECT"><g class="cls-3"><path class="cls-4" d="M350.07,319.12v-3.23l156.79,36.8v5c0,1.31-1.13,2.09-2.12,2.67l-42.35,24.45a4.26,4.26,0,0,1-4.26,0L352.2,323.66C350.39,322.61,350.07,321.13,350.07,319.12Z" transform="translate(-312.16 -66.9)"/><path class="cls-2" d="M352.2,312.21l42.35-24.45a4.26,4.26,0,0,1,4.26,0l105.93,61.16a4.26,4.26,0,0,1,0,7.37l-42.35,24.45a4.26,4.26,0,0,1-4.26,0L352.2,319.58A4.25,4.25,0,0,1,352.2,312.21Z" transform="translate(-312.16 -66.9)"/><path class="cls-5" d="M401.85,293.57V295a1,1,0,0,1-.49.85L394.43,300a.67.67,0,0,1-.72,0l-6.83-3.93a.68.68,0,0,1-.34-.59v-1.6Z" transform="translate(-312.16 -66.9)"/><path class="cls-5" d="M411.83,299.45v1.1a1,1,0,0,1-.48.84l-7,4.34a.67.67,0,0,1-.72,0l-6.81-3.82a.67.67,0,0,1-.35-.59v-1.87Z" transform="translate(-312.16 -66.9)"/><path class="cls-5" d="M422.05,305.25v1.44a1,1,0,0,1-.48.85l-6.95,4.17a.67.67,0,0,1-.72,0l-6.81-3.92a.68.68,0,0,1-.35-.6v-1.6Z" transform="translate(-312.16 -66.9)"/><path class="cls-5" d="M432.22,311.07v1.44a1,1,0,0,1-.48.85l-6.95,4.2a.67.67,0,0,1-.72,0l-6.81-3.95a.67.67,0,0,1-.35-.59v-1.6Z" transform="translate(-312.16 -66.9)"/><path class="cls-5" d="M442,316.78v1.44a1,1,0,0,1-.49.85l-6.95,4.18a.71.71,0,0,1-.72,0l-6.81-3.93a.69.69,0,0,1-.35-.59v-1.6Z" transform="translate(-312.16 -66.9)"/><path class="cls-5" d="M452.1,322.58V324a1,1,0,0,1-.48.85l-7,4.12a.67.67,0,0,1-.72,0l-6.72-3.87a.68.68,0,0,1-.35-.6v-1.6Z" transform="translate(-312.16 -66.9)"/><path class="cls-5" d="M462.17,328.38v1.44a1,1,0,0,1-.48.84l-6.95,4.18a.67.67,0,0,1-.72,0l-6.81-3.93a.66.66,0,0,1-.35-.59v-1.6Z" transform="translate(-312.16 -66.9)"/><path class="cls-5" d="M472.49,334.36v1.44a1,1,0,0,1-.49.84l-6.94,4.18a.67.67,0,0,1-.72,0l-6.82-3.92a.69.69,0,0,1-.34-.6v-1.6Z" transform="translate(-312.16 -66.9)"/><path class="cls-5" d="M482.7,340.24v1.44a1,1,0,0,1-.48.85l-7,4.18a.71.71,0,0,1-.72,0l-6.78-3.93a.67.67,0,0,1-.35-.59v-1.61Z" transform="translate(-312.16 -66.9)"/><path class="cls-5" d="M492.62,346v1.43a1,1,0,0,1-.49.85l-6.95,4.18a.71.71,0,0,1-.72,0l-6.81-3.93a.69.69,0,0,1-.35-.59v-1.6Z" transform="translate(-312.16 -66.9)"/><path class="cls-5" d="M502.76,351.82v1.43a1,1,0,0,1-.48.85l-7,4.18a.71.71,0,0,1-.72,0l-6.77-3.93a.69.69,0,0,1-.35-.59v-1.6Z" transform="translate(-312.16 -66.9)"/><path class="cls-6" d="M393.7,298.29l-7-4a.37.37,0,0,1,0-.64l7.13-4.39a.71.71,0,0,1,.72,0l7.13,4.16a.37.37,0,0,1,0,.64l-7.28,4.27A.71.71,0,0,1,393.7,298.29Z" transform="translate(-312.16 -66.9)"/><path class="cls-6" d="M403.66,304l-7-4a.37.37,0,0,1,0-.64l7.13-4.39a.71.71,0,0,1,.72,0l7.13,4.16a.38.38,0,0,1,0,.64L404.38,304A.71.71,0,0,1,403.66,304Z" transform="translate(-312.16 -66.9)"/><path class="cls-6" d="M413.9,309.94l-7-4a.38.38,0,0,1,0-.65l7.14-4.38a.65.65,0,0,1,.71,0L421.9,305a.37.37,0,0,1,0,.64l-7.28,4.26A.67.67,0,0,1,413.9,309.94Z" transform="translate(-312.16 -66.9)"/><path class="cls-6" d="M424.07,315.78l-7-4a.38.38,0,0,1,0-.65l7.13-4.38a.67.67,0,0,1,.72,0l7.13,4.16a.37.37,0,0,1,0,.64l-7.28,4.26A.67.67,0,0,1,424.07,315.78Z" transform="translate(-312.16 -66.9)"/><path class="cls-6" d="M433.88,321.43l-7-4a.38.38,0,0,1,0-.65l7.13-4.38a.67.67,0,0,1,.72,0l7.13,4.16a.38.38,0,0,1,0,.64l-7.29,4.26A.67.67,0,0,1,433.88,321.43Z" transform="translate(-312.16 -66.9)"/><path class="cls-6" d="M443.93,327.31l-7-4a.38.38,0,0,1,0-.65l7.13-4.38a.67.67,0,0,1,.72,0l7.13,4.16a.38.38,0,0,1,0,.64l-7.28,4.26A.69.69,0,0,1,443.93,327.31Z" transform="translate(-312.16 -66.9)"/><path class="cls-6" d="M454,333.11l-7-4a.38.38,0,0,1,0-.65l7.14-4.38a.65.65,0,0,1,.71,0l7.13,4.16a.37.37,0,0,1,0,.64l-7.28,4.26A.67.67,0,0,1,454,333.11Z" transform="translate(-312.16 -66.9)"/><path class="cls-6" d="M464.32,339.05l-7-4a.37.37,0,0,1,0-.64l7.13-4.39a.69.69,0,0,1,.71,0l7.13,4.16a.37.37,0,0,1,0,.64L465,339.05A.67.67,0,0,1,464.32,339.05Z" transform="translate(-312.16 -66.9)"/><path class="cls-6" d="M474.55,345l-7-4a.37.37,0,0,1,0-.64l7.13-4.39a.71.71,0,0,1,.72,0l7.13,4.16a.37.37,0,0,1,0,.64L475.27,345A.69.69,0,0,1,474.55,345Z" transform="translate(-312.16 -66.9)"/><path class="cls-6" d="M484.46,350.68l-7-4a.37.37,0,0,1,0-.64l7.14-4.39a.7.7,0,0,1,.71,0l7.13,4.16a.37.37,0,0,1,0,.64l-7.28,4.27A.71.71,0,0,1,484.46,350.68Z" transform="translate(-312.16 -66.9)"/><path class="cls-6" d="M494.61,356.47l-7-4a.38.38,0,0,1,0-.65l7.14-4.38a.65.65,0,0,1,.71,0l7.13,4.16a.37.37,0,0,1,0,.64l-7.28,4.26A.67.67,0,0,1,494.61,356.47Z" transform="translate(-312.16 -66.9)"/><path class="cls-5" d="M390.53,300.11v1.44a1,1,0,0,1-.48.85l-6.94,4.18a.71.71,0,0,1-.72,0l-6.82-3.93a.67.67,0,0,1-.35-.59v-1.6Z" transform="translate(-312.16 -66.9)"/><path class="cls-5" d="M400.51,306v1.1a1,1,0,0,1-.48.85l-6.95,4.34a.67.67,0,0,1-.72,0l-6.81-3.82a.7.7,0,0,1-.35-.6V306Z" transform="translate(-312.16 -66.9)"/><path class="cls-5" d="M430.72,323.33v1.44a1,1,0,0,1-.48.84l-6.95,4.18a.67.67,0,0,1-.72,0l-6.81-3.92a.69.69,0,0,1-.35-.6v-1.6Z" transform="translate(-312.16 -66.9)"/><path class="cls-5" d="M440.79,329.13v1.44a1,1,0,0,1-.49.84l-7,4.13a.67.67,0,0,1-.72,0l-6.72-3.88a.68.68,0,0,1-.35-.59v-1.6Z" transform="translate(-312.16 -66.9)"/><path class="cls-5" d="M450.86,334.93v1.43a1,1,0,0,1-.49.85l-6.94,4.18a.69.69,0,0,1-.73,0l-6.81-3.93a.68.68,0,0,1-.34-.59v-1.6Z" transform="translate(-312.16 -66.9)"/><path class="cls-5" d="M461.17,340.91v1.44a1,1,0,0,1-.48.84l-4.17,5.72a.67.67,0,0,1-.72,0l-9.59-5.47a.66.66,0,0,1-.35-.59v-1.6Z" transform="translate(-312.16 -66.9)"/><path class="cls-5" d="M444.62,353.61v1.6a.67.67,0,0,0,.35.59l6.78,3.93a.73.73,0,0,0,.73,0l18.42-10.66a1,1,0,0,0,.49-.84v-1.44Z" transform="translate(-312.16 -66.9)"/><path class="cls-5" d="M481.3,352.51V354a1,1,0,0,1-.49.85L473.87,359a.67.67,0,0,1-.72,0l-6.82-3.92a.69.69,0,0,1-.34-.6v-1.6Z" transform="translate(-312.16 -66.9)"/><path class="cls-5" d="M491.45,358.36v1.44a1,1,0,0,1-.49.85l-7,4.18a.73.73,0,0,1-.73,0l-6.77-3.93a.69.69,0,0,1-.34-.6v-1.6Z" transform="translate(-312.16 -66.9)"/><path class="cls-6" d="M382.38,304.83l-7-4a.38.38,0,0,1,0-.65l7.13-4.38a.67.67,0,0,1,.72,0l7.13,4.16a.37.37,0,0,1,0,.64l-7.28,4.26A.67.67,0,0,1,382.38,304.83Z" transform="translate(-312.16 -66.9)"/><path class="cls-6" d="M392.35,310.52l-7-4a.38.38,0,0,1,0-.65l7.13-4.38a.67.67,0,0,1,.72,0l7.13,4.16a.37.37,0,0,1,0,.64l-7.28,4.26A.67.67,0,0,1,392.35,310.52Z" transform="translate(-312.16 -66.9)"/><path class="cls-5" d="M410.6,312.05l0,1.11a1,1,0,0,1-.48.84l-7,4.34a.67.67,0,0,1-.72,0l-6.81-3.82a.68.68,0,0,1-.35-.6v-1.86Z" transform="translate(-312.16 -66.9)"/><path class="cls-6" d="M402.42,316.59l-7-4a.37.37,0,0,1,0-.64l7.13-4.39a.71.71,0,0,1,.72,0l7.13,4.16a.37.37,0,0,1,0,.64l-7.28,4.27A.71.71,0,0,1,402.42,316.59Z" transform="translate(-312.16 -66.9)"/><path class="cls-5" d="M420.42,318.2l.17.84a1,1,0,0,1-.49.84l-6.94,4.34a.67.67,0,0,1-.72,0l-6.82-3.82a.68.68,0,0,1-.34-.59v-1.87Z" transform="translate(-312.16 -66.9)"/><path class="cls-6" d="M412.42,322.47l-7-4a.37.37,0,0,1,0-.64l7.14-4.39a.7.7,0,0,1,.71,0l7.13,4.16a.37.37,0,0,1,0,.64l-7.28,4.27A.71.71,0,0,1,412.42,322.47Z" transform="translate(-312.16 -66.9)"/><path class="cls-6" d="M422.57,328l-7-4a.38.38,0,0,1,0-.65l7.13-4.38a.67.67,0,0,1,.72,0l7.13,4.16a.37.37,0,0,1,0,.64L423.29,328A.67.67,0,0,1,422.57,328Z" transform="translate(-312.16 -66.9)"/><path class="cls-6" d="M432.62,333.86l-7-4a.37.37,0,0,1,0-.64l7.13-4.39a.71.71,0,0,1,.72,0l7.13,4.16a.37.37,0,0,1,0,.64l-7.28,4.27A.71.71,0,0,1,432.62,333.86Z" transform="translate(-312.16 -66.9)"/><path class="cls-6" d="M442.7,339.66l-7-4a.38.38,0,0,1,0-.65l7.13-4.39a.71.71,0,0,1,.72,0l7.13,4.17a.37.37,0,0,1,0,.63l-7.28,4.27A.73.73,0,0,1,442.7,339.66Z" transform="translate(-312.16 -66.9)"/><path class="cls-6" d="M471.21,346.6l-17.33-10.06a.67.67,0,0,0-.72,0L446,340.92a.38.38,0,0,0,0,.65l9.43,5.45L444.8,353.3a.37.37,0,0,0,0,.64l7,4a.71.71,0,0,0,.72,0l18.71-10.74A.38.38,0,0,0,471.21,346.6Z" transform="translate(-312.16 -66.9)"/><path class="cls-6" d="M473.15,357.22l-7-4a.38.38,0,0,1,0-.65l7.13-4.38a.67.67,0,0,1,.72,0l7.13,4.16a.37.37,0,0,1,0,.64l-7.28,4.26A.67.67,0,0,1,473.15,357.22Z" transform="translate(-312.16 -66.9)"/><path class="cls-6" d="M483.3,363l-7-4a.38.38,0,0,1,0-.65l7.13-4.39a.71.71,0,0,1,.72,0l7.13,4.17a.37.37,0,0,1,0,.64L484,363A.71.71,0,0,1,483.3,363Z" transform="translate(-312.16 -66.9)"/><path class="cls-5" d="M379.08,306.59V308a1,1,0,0,1-.48.85l-6.94,4.18a.67.67,0,0,1-.72,0l-6.82-3.93a.67.67,0,0,1-.35-.59v-1.6Z" transform="translate(-312.16 -66.9)"/><path class="cls-5" d="M389.06,312.47v1.1a1,1,0,0,1-.48.84l-6.95,4.35a.69.69,0,0,1-.72,0l-6.81-3.82a.67.67,0,0,1-.35-.59v-1.87Z" transform="translate(-312.16 -66.9)"/><path class="cls-5" d="M409.45,324.09v1.44a1,1,0,0,1-.48.85l-7,4.21a.69.69,0,0,1-.72,0l-6.81-3.95a.67.67,0,0,1-.35-.59v-1.6Z" transform="translate(-312.16 -66.9)"/><path class="cls-5" d="M419.27,329.8v1.44a1,1,0,0,1-.49.85l-6.94,4.18a.71.71,0,0,1-.72,0l-6.82-3.93a.68.68,0,0,1-.34-.59v-1.6Z" transform="translate(-312.16 -66.9)"/><path class="cls-5" d="M429.33,335.6V337a1,1,0,0,1-.48.85l-7,4.12a.67.67,0,0,1-.72,0l-6.72-3.87a.68.68,0,0,1-.35-.6v-1.6Z" transform="translate(-312.16 -66.9)"/><path class="cls-5" d="M439.41,341.4v1.44a1,1,0,0,1-.49.84L432,347.86a.67.67,0,0,1-.72,0l-6.81-3.93a.68.68,0,0,1-.35-.59v-1.6Z" transform="translate(-312.16 -66.9)"/><path class="cls-5" d="M449.72,347.38v1.44a1,1,0,0,1-.48.85l-6.95,4.17a.67.67,0,0,1-.72,0l-6.81-3.92a.68.68,0,0,1-.35-.6v-1.6Z" transform="translate(-312.16 -66.9)"/><path class="cls-5" d="M469.85,359v1.43a1,1,0,0,1-.49.85l-6.94,4.18a.73.73,0,0,1-.73,0l-6.81-3.93a.68.68,0,0,1-.34-.59v-1.6Z" transform="translate(-312.16 -66.9)"/><path class="cls-5" d="M480,364.84v1.43a1,1,0,0,1-.49.85l-7,4.18a.71.71,0,0,1-.72,0L465,367.37a.68.68,0,0,1-.34-.59v-1.6Z" transform="translate(-312.16 -66.9)"/><path class="cls-6" d="M370.93,311.31l-7-4a.37.37,0,0,1,0-.64l7.13-4.39a.71.71,0,0,1,.72,0l7.13,4.16a.37.37,0,0,1,0,.64l-7.28,4.27A.71.71,0,0,1,370.93,311.31Z" transform="translate(-312.16 -66.9)"/><path class="cls-6" d="M380.9,317l-7-4a.37.37,0,0,1,0-.64l7.13-4.39a.71.71,0,0,1,.72,0l7.13,4.17a.37.37,0,0,1,0,.63L381.62,317A.71.71,0,0,1,380.9,317Z" transform="translate(-312.16 -66.9)"/><path class="cls-5" d="M399.3,318.45v1.1a1,1,0,0,1-.49.84l-6.94,4.34a.67.67,0,0,1-.72,0l-6.82-3.82a.68.68,0,0,1-.34-.59v-1.87Z" transform="translate(-312.16 -66.9)"/><path class="cls-6" d="M391.13,323l-7-4a.37.37,0,0,1,0-.64l7.13-4.39a.71.71,0,0,1,.72,0l7.13,4.16a.38.38,0,0,1,0,.64L391.85,323A.71.71,0,0,1,391.13,323Z" transform="translate(-312.16 -66.9)"/><path class="cls-6" d="M401.3,328.8l-7-4a.38.38,0,0,1,0-.65l7.13-4.38a.67.67,0,0,1,.72,0l7.13,4.16a.37.37,0,0,1,0,.64L402,328.8A.67.67,0,0,1,401.3,328.8Z" transform="translate(-312.16 -66.9)"/><path class="cls-6" d="M411.12,334.45l-7-4a.38.38,0,0,1,0-.65l7.13-4.38a.67.67,0,0,1,.72,0l7.13,4.16a.37.37,0,0,1,0,.64l-7.28,4.26A.67.67,0,0,1,411.12,334.45Z" transform="translate(-312.16 -66.9)"/><path class="cls-6" d="M421.17,340.33l-7-4a.38.38,0,0,1,0-.65l7.13-4.38a.67.67,0,0,1,.72,0l7.13,4.16a.37.37,0,0,1,0,.64l-7.28,4.26A.67.67,0,0,1,421.17,340.33Z" transform="translate(-312.16 -66.9)"/><path class="cls-6" d="M431.25,346.13l-7-4a.38.38,0,0,1,0-.65l7.14-4.38a.65.65,0,0,1,.71,0l7.13,4.16a.37.37,0,0,1,0,.64L432,346.13A.67.67,0,0,1,431.25,346.13Z" transform="translate(-312.16 -66.9)"/><path class="cls-6" d="M441.56,352.07l-7-4a.37.37,0,0,1,0-.64l7.13-4.39a.71.71,0,0,1,.72,0l7.13,4.16a.37.37,0,0,1,0,.64l-7.28,4.26A.67.67,0,0,1,441.56,352.07Z" transform="translate(-312.16 -66.9)"/><path class="cls-6" d="M461.69,363.7l-7-4a.38.38,0,0,1,0-.65l7.13-4.39a.71.71,0,0,1,.72,0l7.13,4.17a.37.37,0,0,1,0,.63l-7.28,4.27A.73.73,0,0,1,461.69,363.7Z" transform="translate(-312.16 -66.9)"/><path class="cls-6" d="M471.84,369.49l-7-4a.38.38,0,0,1,0-.65l7.13-4.38a.67.67,0,0,1,.72,0l7.13,4.16a.38.38,0,0,1,0,.64l-7.29,4.26A.67.67,0,0,1,471.84,369.49Z" transform="translate(-312.16 -66.9)"/><path class="cls-5" d="M367.81,313.24v1.43a1,1,0,0,1-.49.85l-6.94,4.18a.67.67,0,0,1-.72,0l-6.82-3.93a.69.69,0,0,1-.35-.59v-1.6Z" transform="translate(-312.16 -66.9)"/><path class="cls-5" d="M377.8,319.12v1.1a1,1,0,0,1-.49.84l-6.94,4.35a.71.71,0,0,1-.73,0l-6.81-3.82a.68.68,0,0,1-.34-.59v-1.87Z" transform="translate(-312.16 -66.9)"/><path class="cls-5" d="M438.46,354v1.43a1,1,0,0,1-.49.85l-7,4.18a.71.71,0,0,1-.72,0l-57.25-33a.68.68,0,0,1-.35-.6v-1.6Z" transform="translate(-312.16 -66.9)"/><path class="cls-5" d="M448.66,359.91v1.44a1,1,0,0,1-.49.85l-7,4.18a.71.71,0,0,1-.72,0l-6.79-3.93a.68.68,0,0,1-.34-.59v-1.61Z" transform="translate(-312.16 -66.9)"/><path class="cls-5" d="M458.57,365.64v1.43a1,1,0,0,1-.48.85l-6.95,4.18a.71.71,0,0,1-.72,0l-6.81-3.93a.67.67,0,0,1-.35-.59V366Z" transform="translate(-312.16 -66.9)"/><path class="cls-5" d="M468.72,371.49v1.43a1,1,0,0,1-.48.85l-7,4.18a.71.71,0,0,1-.72,0L453.76,374a.67.67,0,0,1-.35-.59v-1.6Z" transform="translate(-312.16 -66.9)"/><path class="cls-6" d="M359.65,318l-7-4a.37.37,0,0,1,0-.64l7.13-4.39a.69.69,0,0,1,.71,0l7.13,4.16a.37.37,0,0,1,0,.64L360.37,318A.71.71,0,0,1,359.65,318Z" transform="translate(-312.16 -66.9)"/><path class="cls-6" d="M369.62,323.65l-7-4a.37.37,0,0,1,0-.64l7.14-4.39a.7.7,0,0,1,.71,0l7.13,4.16a.37.37,0,0,1,0,.64l-7.28,4.27A.71.71,0,0,1,369.62,323.65Z" transform="translate(-312.16 -66.9)"/><path class="cls-6" d="M430.32,358.64l-57.44-33.06a.38.38,0,0,1,0-.65l7.13-4.38a.67.67,0,0,1,.72,0l57.59,33.19a.37.37,0,0,1,0,.64L431,358.64A.67.67,0,0,1,430.32,358.64Z" transform="translate(-312.16 -66.9)"/><path class="cls-6" d="M440.51,364.62l-7-4a.37.37,0,0,1,0-.64l7.13-4.39a.71.71,0,0,1,.72,0l7.13,4.16a.38.38,0,0,1,0,.64l-7.28,4.27A.69.69,0,0,1,440.51,364.62Z" transform="translate(-312.16 -66.9)"/><path class="cls-6" d="M450.42,370.35l-7-4a.37.37,0,0,1,0-.64l7.13-4.39a.71.71,0,0,1,.72,0l7.13,4.16a.37.37,0,0,1,0,.64l-7.28,4.27A.71.71,0,0,1,450.42,370.35Z" transform="translate(-312.16 -66.9)"/><path class="cls-6" d="M460.57,376.14l-7-4a.38.38,0,0,1,0-.65l7.13-4.38a.67.67,0,0,1,.72,0l7.13,4.16a.37.37,0,0,1,0,.64l-7.28,4.26A.67.67,0,0,1,460.57,376.14Z" transform="translate(-312.16 -66.9)"/><g class="cls-7"><g class="cls-8"><path class="cls-5" d="M495.05,130,396.56,73.12c-3-1.75-8.48,3.39-8.79,3.69a2.73,2.73,0,0,1,2.85.24L495,137.33l0-7.35m68.86,39.76-43.42-25.07,0,7.35,36.69,21.18a8.63,8.63,0,0,1,3.92,6.79l-.33,116.85,0,13.55c0,1.6-.74,2.6-1.84,2.76.78,0,8.57-.64,8.58-3l.38-133.62a8.58,8.58,0,0,0-3.92-6.78" transform="translate(-312.16 -66.9)"/><path class="cls-9" d="M557.16,173.2,520.47,152l0,7.9,36.33,21-.3,105.56L390.66,190.72,391,85.16,495,145.23l0-7.9L390.62,77.05a2.73,2.73,0,0,0-2.85-.24,2.78,2.78,0,0,0-1.09,2.49l-.34,116.85L560.75,296.84,561.08,180a8.63,8.63,0,0,0-3.92-6.79" transform="translate(-312.16 -66.9)"/><polyline class="cls-2" points="186.7 212.3 182.31 209.77 185.1 231.57 184.91 231.68 158.69 247.52 113.15 221.23 113.14 224.45 160.62 251.87 189.07 233.07 186.7 212.3"/><polyline class="cls-6" points="184.91 231.68 140.21 205.88 113.15 221.23 158.69 247.52 184.91 231.68"/><polyline class="cls-5" points="182.31 209.77 145.06 188.26 140.41 205.77 140.21 205.87 140.21 205.88 184.91 231.68 185.1 231.57 182.31 209.77"/><path class="cls-6" d="M560.75,296.84,386.34,196.15l0,13.55a8.63,8.63,0,0,0,3.92,6.79l67,38.68,37.25,21.5,4.39,2.54,57.9,33.43a3.36,3.36,0,0,0,2.11.51c1.1-.16,1.83-1.16,1.84-2.76l0-13.55" transform="translate(-312.16 -66.9)"/><path class="cls-10" d="M396.6,188.84v-4.11l3.58,2.07v4.11l-3.58-2.07m7.59,4.38,0-4.1,13.81,8v4.11l-13.82-8m-7.57-10.87v-4.11l3.58,2.07v4.1l-3.58-2.06m7.59,4.38v-4.11l23,13.3V200l-23-13.3m-7.57-10.87v-4.1l3.58,2.06v4.11l-3.58-2.07M410.69,184v-4.11l53.6,30.94v4.11L410.69,184m-14-14.6v-4.12l3.58,2.07,0,4.11-3.57-2.06m7.59,4.38v-4.11l42.83,24.72v4.12l-42.83-24.73m-7.57-10.87v-4.11l3.57,2.06V165l-3.57-2.06M410.73,171v-4.11l27.64,16V187l-27.64-16m-14-18.71,3.57,2.07v4.1l-3.57-2.06v-4.11m7.58,8.49v-4.11l13.81,8v4.11l-13.81-8m-7.58-10.87,0-4.11,3.57,2.06V152l-3.58-2.06m7.59,4.38,0-4.11,23,13.3,0,4.11-23-13.3m-7.57-10.87v-4.11l3.58,2.07v4.11l-3.58-2.07m14,8.12,0-4.11,53.6,30.94,0,4.11-53.6-30.94m-14-14.61v-4.11l3.58,2.07V139l-3.58-2.06m7.59,4.38V137.2l42.83,24.73V166l-42.83-24.73m-7.57-10.87v-4.1l3.58,2.06,0,4.11-3.57-2.07m14.05,8.12v-4.11l27.64,16v4.1l-27.64-15.95m-14-14.61v-4.11l3.57,2.07V126L396.79,124m7.59,4.38v-4.1l68.79,39.71v4.11l-68.79-39.72m79.67,45.45,0-9.79,8.53,4.92,0,9.8-8.53-4.93m-87.24-56.31v-4.11l3.57,2.06v4.11l-3.57-2.06m7.59,4.38v-4.11l42.83,24.73v4.11L404.4,121.85M396.82,111l0-4.12,3.57,2.07V113L396.82,111m14.06,8.11V115L457,141.57v4.12l-46.06-26.6m-14-14.6v-4.11l3.58,2.06v4.11l-3.58-2.06m7.59,4.38,0-4.11,48.21,27.84v4.11l-48.22-27.84m67.71,40.66,0-12,10.44,6,0,12-10.44-6M396.86,98V93.89L400.45,96v4.11L396.86,98m7.59,4.38v-4.1l37.45,21.62V124l-37.45-21.62M556.78,180.9l-36.33-21,0,7.29L495,152.52l0-7.29L391,85.16l-.3,105.56,165.82,95.74.3-105.56" transform="translate(-312.16 -66.9)"/><polyline class="cls-11" points="88.29 29.05 84.71 26.99 84.7 31.1 88.28 33.16 88.29 29.05"/><polyline class="cls-6" points="129.75 52.99 92.3 31.37 92.29 35.48 129.74 57.1 129.75 52.99"/><polyline class="cls-11" points="88.27 35.54 84.69 33.48 84.68 37.58 88.26 39.65 88.27 35.54"/><polyline class="cls-12" points="140.5 65.7 92.29 37.86 92.27 41.97 140.49 69.8 140.5 65.7"/><polyline class="cls-11" points="88.25 42.02 84.68 39.96 84.66 44.08 88.24 46.14 88.25 42.02"/><polyline class="cls-6" points="144.79 74.67 98.73 48.07 98.72 52.19 144.78 78.78 144.79 74.67"/><polyline class="cls-11" points="88.23 48.52 84.66 46.45 84.65 50.56 88.22 52.63 88.23 48.52"/><polyline class="cls-12" points="135.08 75.56 92.25 50.84 92.24 54.94 135.06 79.67 135.08 75.56"/><polyline class="cls-11" points="88.21 55 84.64 52.94 84.63 57.05 88.2 59.11 88.21 55"/><polyline class="cls-6" points="161.03 97.04 92.23 57.32 92.22 61.43 161.01 101.15 161.03 97.04"/><polyline class="cls-11" points="88.2 61.49 84.62 59.43 84.61 63.54 88.18 65.6 88.2 61.49"/><polyline class="cls-12" points="126.31 83.5 98.67 67.54 98.66 71.65 126.3 87.61 126.31 83.5"/><polyline class="cls-11" points="88.18 67.98 84.6 65.92 84.59 70.03 88.17 72.09 88.18 67.98"/><polyline class="cls-12" points="135.02 95.03 92.19 70.3 92.18 74.41 135.01 99.14 135.02 95.03"/><polyline class="cls-11" points="88.16 74.47 84.58 72.41 84.57 76.52 88.15 78.58 88.16 74.47"/><polyline class="cls-6" points="152.24 111.47 98.64 80.52 98.63 84.63 152.22 115.58 152.24 111.47"/><polyline class="cls-11" points="88.14 80.96 84.56 78.89 84.55 83 88.13 85.07 88.14 80.96"/><polyline class="cls-12" points="115.19 96.57 92.16 83.28 92.14 87.39 115.17 100.68 115.19 96.57"/><polyline class="cls-6" points="105.95 97.75 92.14 89.77 92.13 93.88 105.94 101.86 105.95 97.75"/><polyline class="cls-11" points="88.12 87.45 84.55 85.39 84.53 89.5 88.11 91.56 88.12 87.45"/><polyline class="cls-11" points="88.1 93.94 84.53 91.87 84.52 95.98 88.09 98.05 88.1 93.94"/><polyline class="cls-6" points="126.22 115.94 98.58 99.99 98.57 104.09 126.21 120.05 126.22 115.94"/><polyline class="cls-11" points="88.09 100.42 84.51 98.36 84.5 102.47 88.07 104.54 88.09 100.42"/><polyline class="cls-12" points="134.93 127.47 92.1 102.74 92.09 106.86 134.92 131.58 134.93 127.47"/><polyline class="cls-11" points="88.07 106.92 84.49 104.85 84.48 108.96 88.06 111.02 88.07 106.92"/><polyline class="cls-6" points="152.14 143.91 98.55 112.96 98.53 117.07 152.13 148.02 152.14 143.91"/><polyline class="cls-11" points="88.05 113.4 84.47 111.34 84.46 115.44 88.04 117.51 88.05 113.4"/><polyline class="cls-12" points="115.09 129.02 92.06 115.72 92.05 119.83 115.08 133.12 115.09 129.02"/><polyline class="cls-11" points="88.03 119.89 84.45 117.83 84.44 121.94 88.02 124 88.03 119.89"/><polyline class="cls-12" points="105.86 130.19 92.05 122.21 92.03 126.32 105.85 134.3 105.86 130.19"/><polyline class="cls-6" points="68.17 36.69 58.14 30.9 58.1 42.43 68.14 48.23 68.17 36.69"/><polyline class="cls-12" points="49.52 15.05 31.87 4.86 31.81 25.14 49.46 35.33 49.52 15.05"/><polyline class="cls-11" points="60 47.97 43.04 38.17 42.99 57.66 59.95 67.45 60 47.97"/><polyline class="cls-6" points="170.46 76.65 160.02 70.62 159.99 82.62 170.42 88.65 170.46 76.65"/><polyline class="cls-11" points="180.45 102.01 171.92 97.08 171.9 106.88 180.42 111.8 180.45 102.01"/><polyline class="cls-12" points="208.35 71.07 182.91 56.38 182.89 63.07 182.87 70.43 182.85 78.33 182.83 85.61 208.27 100.3 208.29 93.02 208.31 85.11 208.33 77.76 208.35 71.07"/></g></g><g class="cls-7"><g class="cls-13"><path class="cls-2" d="M582.6,157.32l-.59.33a1.82,1.82,0,0,0,.59-.33m-3.18-28.16L555.9,115.58a2.86,2.86,0,0,0-3.24-.15l.42-.24.59,1.64h0l23.52,13.58a9.29,9.29,0,0,1,4.22,7.32l0,16.7,1.47,2.64a3.4,3.4,0,0,0,.73-2.31l0-18.29a9.29,9.29,0,0,0-4.22-7.32" transform="translate(-312.16 -66.9)"/><path class="cls-2" d="M553.08,115.19l-.42.24-1.69,1a3.17,3.17,0,0,1,2.7.43l-.59-1.64" transform="translate(-312.16 -66.9)"/><path class="cls-2" d="M581.39,154.44V156a3.26,3.26,0,0,1-.88,2.46l1.51-.84.59-.33.3-.16,0-.08-1.47-2.64" transform="translate(-312.16 -66.9)"/><path class="cls-5" d="M551.64,120.53c0-1.3.92-1.82,2.05-1.17l23.51,13.58a4.49,4.49,0,0,1,2,3.53l0,18.29c0,1.3-.92,1.82-2.05,1.17l-23.52-13.58a4.5,4.5,0,0,1-2-3.49v0l0-18.3m25.57,9.89-23.52-13.58h0a3.17,3.17,0,0,0-2.7-.43c-.93.36-1.52,1.36-1.53,2.86l-.05,18.3a9.3,9.3,0,0,0,4.22,7.32l23.52,13.58c1.37.79,2.6.74,3.37,0a3.26,3.26,0,0,0,.88-2.46v-1.59l0-16.7a9.29,9.29,0,0,0-4.22-7.32" transform="translate(-312.16 -66.9)"/><path class="cls-2" d="M563.92,142.23a4.82,4.82,0,0,1-1.46-1.15,2.09,2.09,0,0,1-.4-1.29v-1.54a1.36,1.36,0,0,0-.28-.82,2.58,2.58,0,0,0-.81-.69v-1.17a1.33,1.33,0,0,0,.81.26c.18,0,.28-.19.28-.46v-1.6c0-.49.13-.76.41-.81a2.71,2.71,0,0,1,1.45.53v1.1c-.28-.15-.48-.2-.58-.14s-.16.19-.16.41v1.46c0,.6-.35.77-1,.51v.06a2.05,2.05,0,0,1,1,1.61V140a1.18,1.18,0,0,0,.15.59,1.73,1.73,0,0,0,.59.52v1.11m3,1.71v-1.11c.28.16.48.21.58.16s.16-.19.16-.42v-1.52a.57.57,0,0,1,.26-.54,1,1,0,0,1,.74.09v-.06a2.15,2.15,0,0,1-1-1.66v-1.46a1.08,1.08,0,0,0-.16-.6,1.68,1.68,0,0,0-.58-.52v-1.1A6.46,6.46,0,0,1,568,136a2.24,2.24,0,0,1,.57.74,2.27,2.27,0,0,1,.17.91v1.61a1.2,1.2,0,0,0,.26.77,2.52,2.52,0,0,0,.82.68v1.17a1.4,1.4,0,0,0-.81-.26c-.19,0-.28.19-.28.51v1.54a1.11,1.11,0,0,1-.17.72c-.12.13-.31.15-.58.08a5.19,5.19,0,0,1-1.12-.51m10.33-11c1.06.61-22.34-11-22.34-11-1.13-.66-2.05-.14-2.05,1.16,0,0-1.16,15.8-1.22,15.77h0a4.5,4.5,0,0,0,2,3.49l23.52,13.58c1.13.65,2,.13,2.05-1.17l0-18.29a4.49,4.49,0,0,0-2-3.53" transform="translate(-312.16 -66.9)"/><path class="cls-6" d="M563.94,133.49a2.71,2.71,0,0,0-1.45-.53c-.28,0-.41.32-.41.81v1.6c0,.27-.1.42-.28.46a1.33,1.33,0,0,1-.81-.26v1.17a2.58,2.58,0,0,1,.81.69,1.36,1.36,0,0,1,.28.82v1.54a2.09,2.09,0,0,0,.4,1.29,4.82,4.82,0,0,0,1.46,1.15v-1.11a1.73,1.73,0,0,1-.59-.52,1.18,1.18,0,0,1-.15-.59V138.5a2.05,2.05,0,0,0-1-1.61v-.06c.65.26,1,.09,1-.51v-1.46c0-.22,0-.36.16-.41s.3,0,.58.14v-1.1" transform="translate(-312.16 -66.9)"/><path class="cls-6" d="M566.9,135.2v1.1a1.68,1.68,0,0,1,.58.52,1.08,1.08,0,0,1,.16.6v1.46a2.15,2.15,0,0,0,1,1.66v.06a1,1,0,0,0-.74-.09.57.57,0,0,0-.26.54v1.52c0,.23,0,.37-.16.42s-.3,0-.58-.16v1.11a5.19,5.19,0,0,0,1.12.51c.27.07.46.05.58-.08a1.11,1.11,0,0,0,.17-.72v-1.54c0-.32.09-.49.28-.51a1.4,1.4,0,0,1,.81.26v-1.17A2.52,2.52,0,0,1,569,140a1.2,1.2,0,0,1-.26-.77v-1.61a2.27,2.27,0,0,0-.17-.91A2.24,2.24,0,0,0,568,136a6.46,6.46,0,0,0-1.12-.78" transform="translate(-312.16 -66.9)"/><path class="cls-4" d="M577.2,132.94l-23.51-13.58c-1.13-.65-2.05-.13-2.05,1.17l0,18.3v0h0c.06,0,1.22-15.77,1.22-15.77,0-1.3.92-1.82,2.05-1.16,0,0,23.4,11.61,22.34,11" transform="translate(-312.16 -66.9)"/></g></g><g class="cls-7"><g class="cls-14"><path class="cls-5" d="M538.82,109.32l-.58.32a1.94,1.94,0,0,0,.58-.32m-3.19-28.23-23.56-13.6a2.87,2.87,0,0,0-3.22-.17l.39-.22.59,1.63,0,0,23.56,13.6a9.31,9.31,0,0,1,4.23,7.34l0,16.74,1.47,2.64a3.35,3.35,0,0,0,.74-2.31l0-18.33a9.33,9.33,0,0,0-4.24-7.34" transform="translate(-312.16 -66.9)"/><path class="cls-5" d="M509.24,67.1l-.39.22-1.69,1a3.18,3.18,0,0,1,2.67.43l-.59-1.63" transform="translate(-312.16 -66.9)"/><path class="cls-5" d="M537.61,106.43V108a3.22,3.22,0,0,1-.89,2.47l1.53-.85.58-.32.31-.17,0-.08-1.47-2.64" transform="translate(-312.16 -66.9)"/><path class="cls-15" d="M507.8,72.45c0-1.3.92-1.83,2.05-1.17l23.57,13.6a4.48,4.48,0,0,1,2,3.54l-.05,18.33c0,1.29-.92,1.82-2,1.17L509.78,94.31a4.5,4.5,0,0,1-2-3.5v0l.05-18.34m25.62,9.9-23.56-13.6,0,0a3.18,3.18,0,0,0-2.67-.43c-1,.34-1.56,1.35-1.57,2.88l0,18.33a9.32,9.32,0,0,0,4.24,7.33l23.56,13.61c1.37.79,2.59.75,3.37,0a3.22,3.22,0,0,0,.89-2.47v-1.59l0-16.74a9.31,9.31,0,0,0-4.23-7.34" transform="translate(-312.16 -66.9)"/><path class="cls-5" d="M523.07,92.86c.54.31.81.29.81-.07a.78.78,0,0,0-.1-.39,5.11,5.11,0,0,0-.37-.5c-.18-.21-.41-.47-.7-.78a8.67,8.67,0,0,1-.93-1.09,3.35,3.35,0,0,1-.43-.84,3.15,3.15,0,0,1-.13-.9c0-.56.19-.87.57-1a2.38,2.38,0,0,1,1.6.46,8.08,8.08,0,0,1,1.91,1.6l-.45,1c-.27-.29-.53-.54-.77-.77a3.56,3.56,0,0,0-.72-.54c-.44-.25-.66-.25-.66,0a1,1,0,0,0,.21.53,13.52,13.52,0,0,0,.93,1,10.58,10.58,0,0,1,.93,1.09,3.45,3.45,0,0,1,.44.85,2.84,2.84,0,0,1,.14.88c0,.65-.2,1-.59,1.13a2.49,2.49,0,0,1-1.74-.5,7.51,7.51,0,0,1-1-.68,8.75,8.75,0,0,1-.78-.72V91.27a10.22,10.22,0,0,0,.94.91,5.46,5.46,0,0,0,.91.68m-5.64-1.17c.32.19.57.21.71.06a1.57,1.57,0,0,0,.22-1l0-7.67,1.51.87,0,7.66c0,1-.19,1.57-.57,1.85s-.95.21-1.69-.21a5.83,5.83,0,0,1-.89-.64V91.17a4.55,4.55,0,0,0,.72.52m16-6.81c1.06.61-22.4-11-22.4-11-1.13-.65-2-.13-2,1.17,0,0-1.16,15.84-1.22,15.8h0a4.5,4.5,0,0,0,2,3.5l23.57,13.61c1.13.65,2,.12,2-1.17l.05-18.33a4.48,4.48,0,0,0-2-3.54" transform="translate(-312.16 -66.9)"/><path class="cls-6" d="M519.89,84l-1.51-.87,0,7.67a1.57,1.57,0,0,1-.22,1c-.14.15-.39.13-.71-.06a4.55,4.55,0,0,1-.72-.52v1.45a5.83,5.83,0,0,0,.89.64c.74.42,1.31.5,1.69.21s.57-.89.57-1.85l0-7.66" transform="translate(-312.16 -66.9)"/><path class="cls-6" d="M523.39,87.79a2.38,2.38,0,0,0-1.6-.46c-.38.09-.57.4-.57,1a3.15,3.15,0,0,0,.13.9,3.35,3.35,0,0,0,.43.84,8.67,8.67,0,0,0,.93,1.09c.29.31.52.57.7.78a5.11,5.11,0,0,1,.37.5.78.78,0,0,1,.1.39c0,.36-.27.38-.81.07a5.46,5.46,0,0,1-.91-.68,10.22,10.22,0,0,1-.94-.91v1.41a8.75,8.75,0,0,0,.78.72,7.51,7.51,0,0,0,1,.68,2.49,2.49,0,0,0,1.74.5c.39-.11.58-.48.59-1.13a2.84,2.84,0,0,0-.14-.88,3.45,3.45,0,0,0-.44-.85,10.58,10.58,0,0,0-.93-1.09,13.52,13.52,0,0,1-.93-1,1,1,0,0,1-.21-.53c0-.27.22-.27.66,0a3.56,3.56,0,0,1,.72.54c.24.23.5.48.77.77l.45-1a8.08,8.08,0,0,0-1.91-1.6" transform="translate(-312.16 -66.9)"/><path class="cls-4" d="M533.42,84.88l-23.57-13.6c-1.13-.66-2.05-.13-2.05,1.17l-.05,18.34v0h0c.06,0,1.22-15.8,1.22-15.8,0-1.3.92-1.82,2-1.17,0,0,23.46,11.64,22.4,11" transform="translate(-312.16 -66.9)"/></g></g><g id="_Group_" data-name="&lt;Group&gt;"><g id="_Group_2" data-name="&lt;Group&gt;"><path id="_Path_" data-name="&lt;Path&gt;" class="cls-5" d="M560.84,371.63c.6-.07,6-.84,11.38-8.88,2.58-3.82,4.64-10.83,3.38-16.28a9,9,0,0,0-4.14-6c-5.74-3.31-10.75.27-12.6,2.63l3.5,2.74-1.75-1.37,1.74,1.38c.32-.38,3.14-3.69,6.89-1.52a4.6,4.6,0,0,1,2,3.13c.9,3.9-.68,9.76-2.73,12.8-4.22,6.26-8.11,6.93-8.15,6.93Z" transform="translate(-312.16 -66.9)"/></g><path id="_Path_2" data-name="&lt;Path&gt;" class="cls-2" d="M521.69,339l44.88.14-4.08,36h0c0,2.68-1.82,5.36-5.37,7.41-7.17,4.14-18.79,4.14-26,0-3.56-2.06-5.35-4.75-5.37-7.45Z" transform="translate(-312.16 -66.9)"/><path id="_Path_3" data-name="&lt;Path&gt;" class="cls-5" d="M560,329.12c8.78,5.06,8.78,13.28,0,18.35s-23,5.07-31.8,0-8.78-13.29,0-18.35S551.26,324.05,560,329.12Z" transform="translate(-312.16 -66.9)"/><g id="_Clip_Group_" data-name="&lt;Clip Group&gt;"><path id="_Clipping_Path_2" data-name="&lt;Clipping Path&gt;" class="cls-2" d="M544.14,348.31a29.27,29.27,0,0,0,14.41-3.41c3.24-1.87,5.1-4.28,5.1-6.61s-1.86-4.73-5.1-6.61a32.24,32.24,0,0,0-28.82,0c-3.25,1.88-5.11,4.29-5.1,6.61s1.85,4.74,5.1,6.61A29.27,29.27,0,0,0,544.14,348.31Z" transform="translate(-312.16 -66.9)"/><g class="cls-16"><path id="_Path_4" data-name="&lt;Path&gt;" class="cls-9" d="M544.14,354.28a29.27,29.27,0,0,0,14.41-3.4c3.24-1.87,5.1-4.28,5.1-6.61s-1.86-4.74-5.1-6.61a32.26,32.26,0,0,0-28.83,0c-3.24,1.87-5.1,4.28-5.1,6.61s1.86,4.74,5.1,6.61A29.34,29.34,0,0,0,544.14,354.28Z" transform="translate(-312.16 -66.9)"/></g></g></g><g class="cls-7"><g class="cls-17"><path class="cls-12" d="M345.4,193.67l-.63.35a2.16,2.16,0,0,0,.63-.35m-3.21-28.15-23.52-13.58a2.87,2.87,0,0,0-3.21-.17l.39-.22.59,1.64h0L340,166.78a9.32,9.32,0,0,1,4.22,7.32l0,16.71,1.47,2.64a3.42,3.42,0,0,0,.74-2.31l.05-18.3a9.31,9.31,0,0,0-4.23-7.32" transform="translate(-312.16 -66.9)"/><path class="cls-18" d="M315.85,151.55l-.39.22-1.72,1a3.17,3.17,0,0,1,2.7.43l-.59-1.64" transform="translate(-312.16 -66.9)"/><path class="cls-12" d="M344.16,190.81v1.58a3.23,3.23,0,0,1-.87,2.44l1.48-.81.63-.35.27-.15,0-.07-1.47-2.64" transform="translate(-312.16 -66.9)"/><path class="cls-19" d="M314.41,156.89c0-1.29.92-1.82,2-1.17L340,169.3a4.51,4.51,0,0,1,2,3.53L342,191.12c0,1.29-.92,1.82-2,1.17l-23.52-13.58a4.52,4.52,0,0,1-2-3.49v0l.05-18.3M340,166.78,316.46,153.2h0a3.17,3.17,0,0,0-2.7-.43c-.93.36-1.52,1.36-1.53,2.86l0,18.3a9.3,9.3,0,0,0,4.23,7.32l23.52,13.58c1.37.79,2.6.74,3.38,0a3.23,3.23,0,0,0,.87-2.44v-1.58l0-16.71a9.32,9.32,0,0,0-4.22-7.32" transform="translate(-312.16 -66.9)"/><path class="cls-12" d="M324,169.19l-.7-.4,0,4.66.57.33q1.9,1.09,1.92-1.26a3.57,3.57,0,0,0-1.77-3.33m4.31,8.41,0-5.47,1.3.76,0,5.46-1.3-.75m4.45,1.34h0a3.61,3.61,0,0,1,.2-1l.92-2.59,1.36.78-1.83,4.42-1.34-.77-1.79-6.51,1.36.78.91,3.65a7.61,7.61,0,0,1,.18,1.23m-12-6.67-4.22-4.57V167h4.23v1.17l-2.91-.13,2.9,3.06v1.16m14.81,8.56v-1.17l2.91.31-2.9-3.23v-1.18l4.22,4.87v.7l-4.24-.3m-13.65-6.89,0-7.15,1.95,1.13a6.41,6.41,0,0,1,2.36,2.29,5.78,5.78,0,0,1,.83,3.07c0,1.17-.29,1.91-.88,2.19s-1.42.12-2.52-.52l-1.76-1m7-2.11a1.25,1.25,0,0,1-.7-1.14c0-.49.24-.59.7-.32a1.24,1.24,0,0,1,.71,1.13c0,.24-.06.39-.18.44s-.29,0-.53-.11m11-2.53c1,.61-22.35-11-22.35-11-1.13-.65-2-.12-2.05,1.17,0,0-1.16,15.8-1.22,15.77h0a4.52,4.52,0,0,0,2,3.49l23.52,13.58c1.13.65,2,.12,2-1.17l.05-18.29a4.51,4.51,0,0,0-2-3.53" transform="translate(-312.16 -66.9)"/><polyline class="cls-6" points="8.62 100.1 4.39 100.09 4.39 100.79 8.61 105.37 8.61 104.2 5.71 101.15 8.62 101.28 8.62 100.1"/><path class="cls-6" d="M323.24,173.45l0-4.66.7.4a3.57,3.57,0,0,1,1.77,3.33q0,2.35-1.92,1.26l-.57-.33m.66-5.53L322,166.79l0,7.15,1.76,1c1.1.64,1.94.82,2.52.52s.88-1,.88-2.19a5.78,5.78,0,0,0-.83-3.07,6.41,6.41,0,0,0-2.36-2.29" transform="translate(-312.16 -66.9)"/><path class="cls-6" d="M329.59,172.89l-1.3-.76,0,5.47,1.3.75,0-5.46m-.65-2.52c-.46-.27-.7-.17-.7.32a1.25,1.25,0,0,0,.7,1.14c.24.13.42.18.53.11s.18-.2.18-.44a1.24,1.24,0,0,0-.71-1.13" transform="translate(-312.16 -66.9)"/><path class="cls-6" d="M335.23,176.14l-1.36-.78L333,178a3.61,3.61,0,0,0-.2,1h0a7.61,7.61,0,0,0-.18-1.23l-.91-3.65-1.36-.78,1.79,6.51,1.34.77,1.83-4.42" transform="translate(-312.16 -66.9)"/><polyline class="cls-6" points="23.44 108.66 23.44 109.83 26.34 113.06 23.43 112.76 23.43 113.93 27.66 114.22 27.66 113.53 23.44 108.66"/><path class="cls-20" d="M340,169.3l-23.52-13.58c-1.13-.65-2-.12-2,1.17l-.05,18.3v0h0c.06,0,1.22-15.77,1.22-15.77,0-1.29.92-1.82,2.05-1.17,0,0,23.4,11.62,22.35,11" transform="translate(-312.16 -66.9)"/></g></g><g class="cls-7"><g class="cls-21"><path class="cls-11" d="M370,256.46l-.58.33a2.23,2.23,0,0,0,.58-.33m-3.17-28.17-23.52-13.57a2.83,2.83,0,0,0-3.21-.17l.39-.22.58,1.62,0,0,23.52,13.57a9.35,9.35,0,0,1,4.23,7.33l-.05,16.71,1.47,2.63a3.37,3.37,0,0,0,.73-2.3l0-18.3a9.3,9.3,0,0,0-4.22-7.32" transform="translate(-312.16 -66.9)"/><path class="cls-11" d="M340.53,214.33l-.39.22-1.7,1a3.18,3.18,0,0,1,2.67.43l-.58-1.62" transform="translate(-312.16 -66.9)"/><path class="cls-11" d="M368.84,253.58v1.58a3.27,3.27,0,0,1-.87,2.44l1.49-.81.58-.33.31-.17,0-.08-1.47-2.63" transform="translate(-312.16 -66.9)"/><path class="cls-22" d="M339.09,219.67c0-1.3.92-1.82,2-1.17l23.52,13.57a4.51,4.51,0,0,1,2,3.53l-.06,18.29c0,1.3-.92,1.82-2.05,1.17l-23.51-13.58a4.47,4.47,0,0,1-2-3.49v0l0-18.29m25.57,9.87L341.14,216l0,0a3.18,3.18,0,0,0-2.67-.43c-.94.35-1.55,1.36-1.55,2.88l-.05,18.29a9.32,9.32,0,0,0,4.22,7.32l23.52,13.57c1.38.8,2.61.75,3.39,0a3.27,3.27,0,0,0,.87-2.44v-1.58l.05-16.71a9.35,9.35,0,0,0-4.23-7.33" transform="translate(-312.16 -66.9)"/><path class="cls-11" d="M350.68,238.07l-4.22-4.58v-.7l4.23,0V234l-2.92-.13,2.91,3.05v1.17m4.35,2.51v-1.17l2.91.31-2.9-3.23v-1.17l4.22,4.86v.7l-4.23-.3m-3.92-1.27,2.34-5.81,1.18.68L352.29,240l-1.18-.69m13.54-7.24c1.06.62-22.35-11-22.35-11-1.13-.65-2-.13-2.05,1.16,0,0-1.15,15.8-1.21,15.77h0a4.47,4.47,0,0,0,2,3.49l23.51,13.58c1.13.65,2.05.13,2.05-1.17l.06-18.29a4.51,4.51,0,0,0-2-3.53" transform="translate(-312.16 -66.9)"/><polyline class="cls-6" points="38.53 165.9 34.3 165.88 34.3 166.59 38.52 171.17 38.52 170 35.61 166.94 38.53 167.07 38.53 165.9"/><polyline class="cls-6" points="42.47 167.28 41.29 166.59 38.95 172.41 40.13 173.09 42.47 167.28"/><polyline class="cls-6" points="42.88 168.41 42.88 169.59 45.78 172.81 42.87 172.5 42.87 173.68 47.1 173.98 47.1 173.27 42.88 168.41"/><path class="cls-23" d="M364.65,232.07,341.13,218.5c-1.12-.65-2-.13-2,1.17L339,238v0h0c.06,0,1.21-15.77,1.21-15.77,0-1.29.92-1.81,2.05-1.16,0,0,23.41,11.62,22.35,11" transform="translate(-312.16 -66.9)"/></g></g></g></g></g></svg>