<svg xmlns="http://www.w3.org/2000/svg" viewBox="0 0 271 318" id="el_gSy438mAR">
  <style>
    @-webkit-keyframes kf_el_jwziNrepvIp_an_AqpCUPiu6{0%,to{-webkit-transform:translate(237.26171875px,48.09375px) translate(-237.26171875px,-48.09375px) translate(0,0);transform:translate(237.26171875px,48.09375px) translate(-237.26171875px,-48.09375px) translate(0,0)}50%{-webkit-transform:translate(237.26171875px,48.09375px) translate(-237.26171875px,-48.09375px) translate(0,-20px);transform:translate(237.26171875px,48.09375px) translate(-237.26171875px,-48.09375px) translate(0,-20px)}}@keyframes kf_el_jwziNrepvIp_an_AqpCUPiu6{0%,to{-webkit-transform:translate(237.26171875px,48.09375px) translate(-237.26171875px,-48.09375px) translate(0,0);transform:translate(237.26171875px,48.09375px) translate(-237.26171875px,-48.09375px) translate(0,0)}50%{-webkit-transform:translate(237.26171875px,48.09375px) translate(-237.26171875px,-48.09375px) translate(0,-20px);transform:translate(237.26171875px,48.09375px) translate(-237.26171875px,-48.09375px) translate(0,-20px)}}@-webkit-keyframes kf_el_KBb_Gz0k-i__an_oue_jiEW1{0%,to{-webkit-transform:translate(193.3984375px,0) translate(-193.3984375px,0) translate(0,0);transform:translate(193.3984375px,0) translate(-193.3984375px,0) translate(0,0)}50%{-webkit-transform:translate(193.3984375px,0) translate(-193.3984375px,0) translate(0,20px);transform:translate(193.3984375px,0) translate(-193.3984375px,0) translate(0,20px)}}@keyframes kf_el_KBb_Gz0k-i__an_oue_jiEW1{0%,to{-webkit-transform:translate(193.3984375px,0) translate(-193.3984375px,0) translate(0,0);transform:translate(193.3984375px,0) translate(-193.3984375px,0) translate(0,0)}50%{-webkit-transform:translate(193.3984375px,0) translate(-193.3984375px,0) translate(0,20px);transform:translate(193.3984375px,0) translate(-193.3984375px,0) translate(0,20px)}}@-webkit-keyframes kf_el_d3Iv7XHXbqt_an_1r-buiwDV{0%,to{-webkit-transform:translate(-.01171875px,84.44921875px) translate(.01171875px,-84.44921875px) translate(0,0);transform:translate(-.01171875px,84.44921875px) translate(.01171875px,-84.44921875px) translate(0,0)}25%{-webkit-transform:translate(-.01171875px,84.44921875px) translate(.01171875px,-84.44921875px) translate(0,-10px);transform:translate(-.01171875px,84.44921875px) translate(.01171875px,-84.44921875px) translate(0,-10px)}75%{-webkit-transform:translate(-.01171875px,84.44921875px) translate(.01171875px,-84.44921875px) translate(0,10px);transform:translate(-.01171875px,84.44921875px) translate(.01171875px,-84.44921875px) translate(0,10px)}}@keyframes kf_el_d3Iv7XHXbqt_an_1r-buiwDV{0%,to{-webkit-transform:translate(-.01171875px,84.44921875px) translate(.01171875px,-84.44921875px) translate(0,0);transform:translate(-.01171875px,84.44921875px) translate(.01171875px,-84.44921875px) translate(0,0)}25%{-webkit-transform:translate(-.01171875px,84.44921875px) translate(.01171875px,-84.44921875px) translate(0,-10px);transform:translate(-.01171875px,84.44921875px) translate(.01171875px,-84.44921875px) translate(0,-10px)}75%{-webkit-transform:translate(-.01171875px,84.44921875px) translate(.01171875px,-84.44921875px) translate(0,10px);transform:translate(-.01171875px,84.44921875px) translate(.01171875px,-84.44921875px) translate(0,10px)}}@-webkit-keyframes kf_el_4p0Xq63MOkC_an_Nl2kUagac{0%,to{-webkit-transform:translate(24.76171875px,147.23046875px) translate(-24.76171875px,-147.23046875px) translate(0,0);transform:translate(24.76171875px,147.23046875px) translate(-24.76171875px,-147.23046875px) translate(0,0)}25%{-webkit-transform:translate(24.76171875px,147.23046875px) translate(-24.76171875px,-147.23046875px) translate(0,10px);transform:translate(24.76171875px,147.23046875px) translate(-24.76171875px,-147.23046875px) translate(0,10px)}75%{-webkit-transform:translate(24.76171875px,147.23046875px) translate(-24.76171875px,-147.23046875px) translate(0,-10px);transform:translate(24.76171875px,147.23046875px) translate(-24.76171875px,-147.23046875px) translate(0,-10px)}}@keyframes kf_el_4p0Xq63MOkC_an_Nl2kUagac{0%,to{-webkit-transform:translate(24.76171875px,147.23046875px) translate(-24.76171875px,-147.23046875px) translate(0,0);transform:translate(24.76171875px,147.23046875px) translate(-24.76171875px,-147.23046875px) translate(0,0)}25%{-webkit-transform:translate(24.76171875px,147.23046875px) translate(-24.76171875px,-147.23046875px) translate(0,10px);transform:translate(24.76171875px,147.23046875px) translate(-24.76171875px,-147.23046875px) translate(0,10px)}75%{-webkit-transform:translate(24.76171875px,147.23046875px) translate(-24.76171875px,-147.23046875px) translate(0,-10px);transform:translate(24.76171875px,147.23046875px) translate(-24.76171875px,-147.23046875px) translate(0,-10px)}}#el_gSy438mAR *{-webkit-animation-duration:4s;animation-duration:4s;-webkit-animation-iteration-count:infinite;animation-iteration-count:infinite;-webkit-animation-timing-function:cubic-bezier(0,0,1,1);animation-timing-function:cubic-bezier(0,0,1,1)}
  </style>
  <defs>
    <clipPath id="clip-path" transform="translate(-.01 -30.77)">
      <path class="cls-1" d="M31.39 208.02L31.98 0l223.74 129.17-.59 208.02L31.39 208.02z"/>
    </clipPath>
    <clipPath id="clip-path-2" transform="translate(-.01 -30.77)">
      <path class="cls-1" d="M237.23 106.3l.09-30.57 34.19 19.74-.08 30.57-34.2-19.74z"/>
    </clipPath>
    <clipPath id="clip-path-3" transform="translate(-.01 -30.77)">
      <path class="cls-1" d="M193.38 58.25l.09-30.63 34.27 19.79-.09 30.63-34.27-19.79z"/>
    </clipPath>
    <clipPath id="clip-path-4" transform="translate(-.01 -30.77)">
      <path id="_Clipping_Path_" data-name="&lt;Clipping Path&gt;" class="cls-2" d="M232 312.17a29.42 29.42 0 0 0 14.42-3.4c3.24-1.87 5.1-4.28 5.1-6.61s-1.86-4.74-5.1-6.61a32.17 32.17 0 0 0-28.83 0c-3.24 1.87-5.1 4.28-5.1 6.61s1.86 4.74 5.1 6.61a29.38 29.38 0 0 0 14.41 3.4z"/>
    </clipPath>
    <clipPath id="clip-path-5" transform="translate(-.01 -30.77)">
      <path class="cls-1" d="M0 142.66l.09-30.58 34.2 19.75-.09 30.57L0 142.66z"/>
    </clipPath>
    <clipPath id="clip-path-6" transform="translate(-.01 -30.77)">
      <path class="cls-1" d="M24.68 205.42l.08-30.56 34.2 19.74-.09 30.57-34.19-19.75z"/>
    </clipPath>
  </defs>
  <g id="el_fNAzXAnc3i" data-name="Layer 2">
    <g id="el_cyR8nt7Bfd">
      <g id="el_Pp3aG7SaRc">
        <g id="el_HlK8WYJpEr">
          <path d="M37.92 283v-3.22l156.8 36.8v5c0 1.31-1.14 2.1-2.13 2.67l-42.35 24.45a4.26 4.26 0 0 1-4.26 0L40.05 287.52c-1.81-1.05-2.13-2.52-2.13-4.52z" style="-webkit-transform:translate(-.01px,-30.77px);transform:translate(-.01px,-30.77px)" fill="#4343c4"/>
          <path d="M40.05 276.07l42.35-24.45a4.26 4.26 0 0 1 4.26 0l105.93 61.16a4.26 4.26 0 0 1 0 7.38l-42.35 24.45a4.26 4.26 0 0 1-4.26 0L40.05 283.45a4.26 4.26 0 0 1 0-7.38z" style="-webkit-transform:translate(-.01px,-30.77px);transform:translate(-.01px,-30.77px)" fill="#6464dd"/>
          <g id="el_-5zE1FPA5z">
            <g id="el_y79tP5ZFtT">
              <path d="M89.7 257.43v1.44a1 1 0 0 1-.48.85l-6.94 4.17a.67.67 0 0 1-.72 0L74.74 260a.68.68 0 0 1-.35-.6v-1.6zM99.68 263.31v1.1a1 1 0 0 1-.48.85l-7 4.34a.67.67 0 0 1-.72 0l-6.81-3.83a.68.68 0 0 1-.35-.59v-1.86zM109.91 269.12v1.43a1 1 0 0 1-.49.85l-6.94 4.18a.73.73 0 0 1-.73 0l-6.81-3.93a.68.68 0 0 1-.34-.59v-1.6zM120.07 274.94v1.44a1 1 0 0 1-.48.84l-7 4.21a.67.67 0 0 1-.72 0l-6.81-4a.68.68 0 0 1-.35-.59v-1.6zM129.89 280.65v1.44a1 1 0 0 1-.48.84l-7 4.18a.67.67 0 0 1-.72 0l-6.81-3.93a.66.66 0 0 1-.35-.59V281zM140 286.45v1.43a1 1 0 0 1-.49.85l-7 4.13a.73.73 0 0 1-.73 0L125 289a.69.69 0 0 1-.35-.59v-1.6zM150 292.25v1.43a1 1 0 0 1-.49.85l-6.94 4.18a.73.73 0 0 1-.73 0l-6.81-3.93a.68.68 0 0 1-.34-.59v-1.6zM160.34 298.23v1.43a1 1 0 0 1-.48.85l-7 4.18a.71.71 0 0 1-.72 0l-6.81-3.93a.67.67 0 0 1-.35-.59v-1.6zM170.56 304.11v1.44a1 1 0 0 1-.49.84l-7 4.18a.67.67 0 0 1-.72 0l-6.79-3.93a.68.68 0 0 1-.35-.59v-1.6zM180.47 309.83v1.44a1 1 0 0 1-.49.84l-6.98 4.18a.67.67 0 0 1-.72 0l-6.82-3.93a.67.67 0 0 1-.34-.59v-1.6zM190.62 315.68v1.44a1 1 0 0 1-.49.84l-7 4.18a.69.69 0 0 1-.73 0l-6.77-3.93a.67.67 0 0 1-.34-.59V316z" style="-webkit-transform:translate(-.01px,-30.77px);transform:translate(-.01px,-30.77px)" fill="#a5a5f2"/>
              <path d="M81.55 262.15l-7-4a.38.38 0 0 1 0-.65l7.13-4.38a.67.67 0 0 1 .72 0l7.13 4.16a.37.37 0 0 1 0 .64l-7.28 4.26a.67.67 0 0 1-.7-.03zM91.52 267.84l-7-4a.38.38 0 0 1 0-.65l7.13-4.38a.67.67 0 0 1 .72 0l7.13 4.16a.37.37 0 0 1 0 .64l-7.28 4.26a.67.67 0 0 1-.7-.03zM101.75 273.81l-7-4a.38.38 0 0 1 0-.65l7.13-4.39a.71.71 0 0 1 .72 0l7.13 4.17a.37.37 0 0 1 0 .63l-7.28 4.27a.73.73 0 0 1-.7-.03zM111.92 279.65l-7-4a.38.38 0 0 1 0-.65l7.14-4.39a.7.7 0 0 1 .71 0l7.13 4.17a.37.37 0 0 1 0 .64l-7.28 4.26a.71.71 0 0 1-.7-.03zM121.74 285.3l-7-4a.37.37 0 0 1 0-.64l7.13-4.39a.71.71 0 0 1 .72 0l7.13 4.16a.37.37 0 0 1 0 .64l-7.28 4.27a.71.71 0 0 1-.7-.04zM131.79 291.17l-7-4a.37.37 0 0 1 0-.64l7.13-4.39a.71.71 0 0 1 .72 0l7.13 4.16a.37.37 0 0 1 0 .64l-7.28 4.26a.67.67 0 0 1-.7-.03zM141.87 297l-7-4a.37.37 0 0 1 0-.64l7.13-4.39a.71.71 0 0 1 .72 0l7.13 4.16a.38.38 0 0 1 0 .64L142.6 297a.71.71 0 0 1-.73 0zM152.18 302.92l-7-4a.38.38 0 0 1 0-.65l7.13-4.39a.69.69 0 0 1 .72 0l7.13 4.16a.37.37 0 0 1 0 .64l-7.28 4.26a.71.71 0 0 1-.7-.02zM162.4 308.82l-7-4a.38.38 0 0 1 0-.65l7.14-4.38a.65.65 0 0 1 .71 0l7.13 4.16a.37.37 0 0 1 0 .64l-7.28 4.26a.67.67 0 0 1-.7-.03zM172.32 314.54l-7-4a.38.38 0 0 1 0-.65l7.13-4.38a.67.67 0 0 1 .72 0l7.13 4.16a.37.37 0 0 1 0 .64l-7.3 4.23a.67.67 0 0 1-.68 0zM182.47 320.34l-7-4a.37.37 0 0 1 0-.64l7.13-4.39a.71.71 0 0 1 .72 0l7.13 4.16a.37.37 0 0 1 0 .64l-7.28 4.27a.71.71 0 0 1-.7-.04z" style="-webkit-transform:translate(-.01px,-30.77px);transform:translate(-.01px,-30.77px)" fill="#fff"/>
            </g>
            <g id="el_CIDCN8FVFHI">
              <path d="M78.39 264v1.44a1 1 0 0 1-.49.84l-6.9 4.16a.69.69 0 0 1-.73 0l-6.82-3.93a.67.67 0 0 1-.34-.59v-1.6zM88.37 269.86V271a1 1 0 0 1-.49.84l-6.94 4.35a.71.71 0 0 1-.72 0l-6.82-3.83a.68.68 0 0 1-.34-.59v-1.87zM118.57 287.2v1.43a1 1 0 0 1-.48.85l-7 4.18a.71.71 0 0 1-.72 0l-6.81-3.93a.69.69 0 0 1-.35-.59v-1.6zM128.64 293v1.44a1 1 0 0 1-.49.85l-7 4.13a.69.69 0 0 1-.72 0l-6.73-3.87a.68.68 0 0 1-.34-.59v-1.6zM138.71 298.79v1.44a1 1 0 0 1-.48.85l-6.95 4.17a.67.67 0 0 1-.72 0l-6.81-3.92a.68.68 0 0 1-.35-.6v-1.6zM149 304.77v1.44a1 1 0 0 1-.49.85l-4.17 5.72a.71.71 0 0 1-.72 0l-9.59-5.47a.69.69 0 0 1-.34-.6v-1.6zM132.48 317.47v1.6a.67.67 0 0 0 .34.59l6.79 3.93a.67.67 0 0 0 .72 0l18.42-10.65a1 1 0 0 0 .49-.85v-1.43zM169.15 316.38v1.43a1 1 0 0 1-.48.85l-6.95 4.18a.69.69 0 0 1-.72 0l-6.81-3.93a.67.67 0 0 1-.35-.59v-1.6zM179.3 322.23v1.43a1 1 0 0 1-.48.85l-7 4.18a.67.67 0 0 1-.72 0l-6.77-3.93a.67.67 0 0 1-.35-.59v-1.6z" style="-webkit-transform:translate(-.01px,-30.77px);transform:translate(-.01px,-30.77px)" fill="#a5a5f2"/>
              <path d="M70.23 268.7l-7-4a.38.38 0 0 1 0-.65l7.13-4.39a.71.71 0 0 1 .72 0l7.13 4.17a.37.37 0 0 1 0 .63L71 268.7a.73.73 0 0 1-.77 0zM80.2 274.39l-7-4a.38.38 0 0 1 0-.65l7.14-4.39a.7.7 0 0 1 .71 0l7.13 4.17a.37.37 0 0 1 0 .64l-7.28 4.26a.71.71 0 0 1-.7-.03z" style="-webkit-transform:translate(-.01px,-30.77px);transform:translate(-.01px,-30.77px)" fill="#fff"/>
              <path d="M98.45 275.92V277a1 1 0 0 1-.49.85L91 282.21a.71.71 0 0 1-.72 0l-6.82-3.83a.68.68 0 0 1-.34-.59v-1.87z" style="-webkit-transform:translate(-.01px,-30.77px);transform:translate(-.01px,-30.77px)" fill="#a5a5f2"/>
              <path d="M90.27 280.45l-7-4a.38.38 0 0 1 0-.65l7.14-4.38a.65.65 0 0 1 .71 0l7.13 4.16a.37.37 0 0 1 0 .64L91 280.45a.67.67 0 0 1-.73 0z" style="-webkit-transform:translate(-.01px,-30.77px);transform:translate(-.01px,-30.77px)" fill="#fff"/>
              <path d="M108.28 282.07l.16.83a1 1 0 0 1-.48.85l-6.96 4.34a.67.67 0 0 1-.72 0l-6.81-3.83a.66.66 0 0 1-.35-.59v-1.86z" style="-webkit-transform:translate(-.01px,-30.77px);transform:translate(-.01px,-30.77px)" fill="#a5a5f2"/>
              <path d="M100.28 286.33l-7-4a.38.38 0 0 1 0-.65l7.13-4.38a.67.67 0 0 1 .72 0l7.13 4.16a.37.37 0 0 1 0 .64l-7.26 4.23a.67.67 0 0 1-.72 0zM110.42 291.84l-7-4a.38.38 0 0 1 0-.65l7.14-4.38a.65.65 0 0 1 .71 0l7.13 4.16a.37.37 0 0 1 0 .64l-7.28 4.26a.67.67 0 0 1-.7-.03zM120.47 297.72l-7-4a.38.38 0 0 1 0-.65l7.13-4.38a.65.65 0 0 1 .71 0l7.13 4.16a.37.37 0 0 1 0 .64l-7.28 4.26a.67.67 0 0 1-.69-.03zM130.56 303.52l-7-4a.38.38 0 0 1 0-.65l7.13-4.38a.67.67 0 0 1 .72 0l7.13 4.16a.37.37 0 0 1 0 .64l-7.28 4.26a.67.67 0 0 1-.7-.03zM159.06 310.46l-17.33-10.06a.7.7 0 0 0-.71 0l-7.14 4.39a.37.37 0 0 0 0 .64l9.44 5.46-10.66 6.27a.38.38 0 0 0 0 .65l7 4a.69.69 0 0 0 .73 0l18.7-10.74a.37.37 0 0 0-.03-.61zM161 321.09l-7-4a.38.38 0 0 1 0-.65l7.14-4.39a.7.7 0 0 1 .71 0l7.13 4.17a.37.37 0 0 1 0 .64l-7.28 4.26a.71.71 0 0 1-.7-.03zM171.15 326.88l-7-4a.38.38 0 0 1 0-.65l7.13-4.38a.67.67 0 0 1 .72 0l7.13 4.16a.37.37 0 0 1 0 .64l-7.28 4.26a.67.67 0 0 1-.7-.03z" style="-webkit-transform:translate(-.01px,-30.77px);transform:translate(-.01px,-30.77px)" fill="#fff"/>
            </g>
            <g id="el_h1ou_nPNXBG">
              <path d="M66.94 270.45v1.44a1 1 0 0 1-.49.85l-6.94 4.17a.67.67 0 0 1-.72 0L52 273a.7.7 0 0 1-.35-.6v-1.6zM76.92 276.33v1.1a1 1 0 0 1-.49.85l-7 4.34a.67.67 0 0 1-.72 0L62 278.79a.67.67 0 0 1-.34-.59v-1.86zM97.31 288v1.44a1 1 0 0 1-.49.84l-6.94 4.21a.69.69 0 0 1-.73 0l-6.81-4a.67.67 0 0 1-.34-.59v-1.6zM107.12 293.67v1.44a1 1 0 0 1-.48.84l-7 4.18a.67.67 0 0 1-.72 0l-6.81-3.93a.66.66 0 0 1-.35-.59V294zM117.19 299.47v1.43a1 1 0 0 1-.49.85l-7 4.13a.71.71 0 0 1-.72 0l-6.76-3.88a.68.68 0 0 1-.34-.59v-1.6zM127.26 305.27v1.43a1 1 0 0 1-.48.85l-7 4.18a.71.71 0 0 1-.72 0l-6.81-3.93a.67.67 0 0 1-.35-.59v-1.6zM137.58 311.25v1.43a1 1 0 0 1-.49.85l-7 4.18a.71.71 0 0 1-.72 0l-6.81-3.93a.69.69 0 0 1-.35-.59v-1.6zM157.7 322.85v1.44a1 1 0 0 1-.48.84l-6.95 4.18a.67.67 0 0 1-.72 0l-6.81-3.93a.66.66 0 0 1-.35-.59v-1.6zM167.85 328.7v1.44a1 1 0 0 1-.48.84l-7 4.18a.67.67 0 0 1-.72 0l-6.77-3.93a.66.66 0 0 1-.35-.59V329z" style="-webkit-transform:translate(-.01px,-30.77px);transform:translate(-.01px,-30.77px)" fill="#a5a5f2"/>
              <path d="M58.78 275.17l-7-4a.38.38 0 0 1 0-.65l7.14-4.38a.65.65 0 0 1 .71 0l7.13 4.16a.37.37 0 0 1 0 .64l-7.28 4.26a.67.67 0 0 1-.7-.03zM68.75 280.86l-7-4a.38.38 0 0 1 0-.65l7.14-4.38a.65.65 0 0 1 .71 0l7.15 4.17a.37.37 0 0 1 0 .64l-7.28 4.26a.67.67 0 0 1-.72-.04z" style="-webkit-transform:translate(-.01px,-30.77px);transform:translate(-.01px,-30.77px)" fill="#fff"/>
              <path d="M87.15 282.31v1.1a1 1 0 0 1-.48.85l-7 4.34a.69.69 0 0 1-.72 0l-6.81-3.83a.66.66 0 0 1-.35-.59v-1.86z" style="-webkit-transform:translate(-.01px,-30.77px);transform:translate(-.01px,-30.77px)" fill="#a5a5f2"/>
              <path d="M79 286.84l-7-4a.38.38 0 0 1 0-.65l7.13-4.38a.67.67 0 0 1 .72 0l7.15 4.13a.37.37 0 0 1 0 .64l-7.28 4.26a.67.67 0 0 1-.72 0zM89.15 292.67l-7-4a.38.38 0 0 1 0-.65l7.13-4.39a.71.71 0 0 1 .72 0l7.13 4.17a.38.38 0 0 1 0 .64l-7.28 4.26a.73.73 0 0 1-.7-.03zM99 298.32l-7-4a.37.37 0 0 1 0-.64l7.13-4.39a.71.71 0 0 1 .72 0l7.13 4.16a.37.37 0 0 1 0 .64l-7.28 4.27a.71.71 0 0 1-.7-.04zM109 304.19l-7-4a.37.37 0 0 1 0-.64l7.14-4.39a.7.7 0 0 1 .71 0l7.13 4.16a.37.37 0 0 1 0 .64l-7.28 4.26a.67.67 0 0 1-.7-.03zM119.11 310l-7-4a.37.37 0 0 1 0-.64l7.13-4.39a.71.71 0 0 1 .72 0l7.13 4.16a.37.37 0 0 1 0 .64l-7.26 4.23a.69.69 0 0 1-.72 0zM129.41 315.94l-7-4a.38.38 0 0 1 0-.65l7.13-4.38a.67.67 0 0 1 .72 0l7.13 4.16a.37.37 0 0 1 0 .64l-7.28 4.26a.69.69 0 0 1-.7-.03zM149.55 327.56l-7-4a.38.38 0 0 1 0-.65l7.13-4.38a.67.67 0 0 1 .72 0l7.13 4.16a.37.37 0 0 1 0 .64l-7.28 4.26a.67.67 0 0 1-.7-.03zM159.7 333.36l-7-4a.37.37 0 0 1 0-.64l7.13-4.39a.71.71 0 0 1 .72 0l7.13 4.16a.37.37 0 0 1 0 .64l-7.28 4.27a.71.71 0 0 1-.7-.04z" style="-webkit-transform:translate(-.01px,-30.77px);transform:translate(-.01px,-30.77px)" fill="#fff"/>
            </g>
            <g id="el_uksIgKiwhlO">
              <path d="M55.66 277.1v1.44a1 1 0 0 1-.48.85l-6.94 4.17a.67.67 0 0 1-.72 0l-6.82-3.92a.68.68 0 0 1-.35-.6v-1.6zM65.66 283v1.1a1 1 0 0 1-.48.85l-6.95 4.34a.67.67 0 0 1-.72 0l-6.81-3.83a.66.66 0 0 1-.35-.59V283zM126.31 317.81v1.44a1 1 0 0 1-.48.84l-7 4.18a.67.67 0 0 1-.72 0L60.9 291.32a.69.69 0 0 1-.35-.59v-1.6zM136.51 323.78v1.44a1 1 0 0 1-.48.84l-7 4.18a.67.67 0 0 1-.72 0l-6.78-3.93a.66.66 0 0 1-.35-.59v-1.6zM146.43 329.5v1.44a1 1 0 0 1-.49.84L139 336a.67.67 0 0 1-.72 0l-6.82-4a.68.68 0 0 1-.35-.59v-1.6zM156.58 335.35v1.44a1 1 0 0 1-.49.84l-7 4.18a.67.67 0 0 1-.72 0l-6.77-3.93a.68.68 0 0 1-.35-.59v-1.6z" style="-webkit-transform:translate(-.01px,-30.77px);transform:translate(-.01px,-30.77px)" fill="#a5a5f2"/>
              <path d="M47.51 281.82l-7-4a.38.38 0 0 1 0-.65l7.13-4.38a.67.67 0 0 1 .72 0l7.13 4.16a.37.37 0 0 1 0 .64l-7.28 4.26a.67.67 0 0 1-.7-.03zM57.47 287.51l-7-4a.38.38 0 0 1 0-.65l7.13-4.38a.67.67 0 0 1 .72 0l7.13 4.16a.38.38 0 0 1 0 .64l-7.28 4.26a.69.69 0 0 1-.7-.03zM118.17 322.51l-57.44-33.06a.38.38 0 0 1 0-.65l7.14-4.39a.7.7 0 0 1 .71 0l57.6 33.19a.38.38 0 0 1 0 .64l-7.28 4.27a.73.73 0 0 1-.73 0zM128.36 328.49l-7-4a.38.38 0 0 1 0-.65l7.13-4.38a.67.67 0 0 1 .72 0l7.13 4.16a.37.37 0 0 1 0 .64l-7.28 4.26a.67.67 0 0 1-.7-.03zM138.27 334.21l-7-4a.38.38 0 0 1 0-.65l7.13-4.38a.67.67 0 0 1 .72 0l7.13 4.16a.38.38 0 0 1 0 .64l-7.25 4.23a.67.67 0 0 1-.73 0zM148.42 340l-7-4a.37.37 0 0 1 0-.64l7.14-4.39a.7.7 0 0 1 .71 0l7.13 4.16a.37.37 0 0 1 0 .64l-7.26 4.23a.71.71 0 0 1-.72 0z" style="-webkit-transform:translate(-.01px,-30.77px);transform:translate(-.01px,-30.77px)" fill="#fff"/>
            </g>
          </g>
        </g>
        <g style="isolation:isolate">
          <g style="-webkit-clip-path:url(#clip-path)" clip-path="url(#clip-path)">
            <g id="el_5OeNz2PU-4Y">
              <path d="M182.9 93.84L84.41 37c-3-1.74-8.47 3.4-8.79 3.69a2.77 2.77 0 0 1 2.86.24l104.4 60.28v-7.35m68.87 39.76l-43.42-25.07v7.35L245 137.06a8.63 8.63 0 0 1 3.92 6.79l-.32 116.85v13.55c0 1.61-.73 2.6-1.84 2.77.78-.06 8.58-.65 8.58-3l.38-133.62a8.63 8.63 0 0 0-3.91-6.78" style="-webkit-transform:translate(-.01px,-30.77px);transform:translate(-.01px,-30.77px)" fill="#a5a5f2"/>
              <path d="M245 137.06l-36.68-21.18v7.91l36.33 21-.3 105.56-165.84-95.76.3-105.59 104.05 60.1v-7.91L78.48 40.91a2.4 2.4 0 0 0-4 2.25L74.2 160l174.4 100.7.33-116.85a8.63 8.63 0 0 0-3.92-6.79" style="-webkit-transform:translate(-.01px,-30.77px);transform:translate(-.01px,-30.77px)" fill="#0f054c"/>
              <path fill="#6464dd" d="M186.7 212.3l-4.39-2.53 2.79 21.8-.19.11-26.22 15.84-45.54-26.29-.01 3.22 47.48 27.42 28.45-18.8-2.37-20.77"/>
              <path fill="#fff" d="M184.91 231.68l-44.7-25.8-27.06 15.35 45.54 26.29 26.22-15.84"/>
              <path fill="#a5a5f2" d="M182.31 209.77l-37.25-21.51-4.65 17.51-.2.1v.01l44.7 25.8.19-.11-2.79-21.8"/>
              <path d="M248.6 260.7L74.2 160v13.55a8.63 8.63 0 0 0 3.92 6.79l67 38.68 37.25 21.51 4.39 2.53 57.9 33.43a3.27 3.27 0 0 0 2.1.52c1.11-.17 1.84-1.16 1.84-2.77v-13.55" style="-webkit-transform:translate(-.01px,-30.77px);transform:translate(-.01px,-30.77px)" fill="#fff"/>
              <path d="M84.46 152.71v-4.11l3.54 2.06v4.11l-3.57-2.06m7.59 4.38V153l13.82 8v4.11l-13.82-8m-7.57-10.88v-4.1l3.57 2.06v4.11l-3.57-2.07m7.59 4.39v-4.11l23 13.29v4.11l-23-13.29m-7.58-10.87v-4.11l3.57 2.06v4.11l-3.58-2.06m14.06 8.11v-4.11l53.6 31v4.11l-53.6-30.95m-14-14.6v-4.11l3.58 2.06v4.12l-3.58-2.07m7.59 4.39v-4.12l42.82 24.73v4.11L92.1 137.63m-7.57-10.88v-4.11l3.58 2.07v4.1l-3.58-2.06m14 8.11v-4.1l27.63 16v4.11l-27.64-16m-14-18.7l3.58 2.06v4.11l-3.57-2.07v-4.1m7.58 8.49v-4.11l13.82 8v4.1l-13.82-8m-7.57-10.88v-4.11l3.57 2.07v4.11l-3.57-2.07m7.59 4.38v-4.1l23 13.29v4.11l-23-13.3m-7.57-10.86v-4.11l3.57 2.06v4.11l-3.57-2.06m14 8.11v-4.11l53.6 31v4.11l-53.52-31m-14-14.61v-4.1l3.57 2.06v4.11l-3.58-2.07m7.6 4.39v-4.11L135 125.8v4.1l-42.8-24.72m-7.58-10.87V90.2l3.58 2.06v4.11l-3.58-2.06m14.06 8.11v-4.11l27.64 16v4.11l-27.63-16m-14-14.6v-4.11l3.58 2.06v4.11l-3.58-2.06m7.59 4.38v-4.11L161 127.81v4.11L92.23 92.2m79.68 45.45v-9.8l8.53 4.93v9.79l-8.53-4.92M84.66 81.33v-4.11l3.58 2.07v4.1l-3.57-2.06m7.59 4.38V81.6l42.83 24.73v4.11L92.25 85.71m-7.57-10.87v-4.11l3.58 2.06v4.12l-3.57-2.07m14 8.12v-4.12l46.07 26.6v4.11L98.73 83m-14-14.61v-4.15l3.57 2.07v4.11l-3.6-2.07m7.59 4.38v-4.1l48.22 27.83v4.11L92.29 72.73M160 113.39v-12l10.44 6v12l-10.44-6M84.71 61.87v-4.11l3.57 2.06v4.11l-3.58-2.06m7.6 4.38v-4.11l37.44 21.62v4.11L92.31 66.25m152.32 78.51l-36.33-21v7.28l-25.44-14.69v-7.28L78.81 49l-.3 105.57 165.82 95.73.3-105.56" style="-webkit-transform:translate(-.01px,-30.77px);transform:translate(-.01px,-30.77px)" fill="#1c157a"/>
              <path fill="#ff2c9c" d="M88.29 29.05l-3.58-2.06-.01 4.11 3.58 2.06.01-4.11"/>
              <path fill="#fff" d="M129.75 52.99L92.3 31.37l-.01 4.11 37.45 21.62.01-4.11"/>
              <path fill="#ff2c9c" d="M88.27 35.54l-3.58-2.06-.01 4.1 3.58 2.07.01-4.11"/>
              <path fill="#42e8e0" d="M140.5 65.7L92.29 37.86l-.02 4.11 48.22 27.83.01-4.1"/>
              <path fill="#ff2c9c" d="M88.25 42.02l-3.57-2.06-.02 4.12 3.58 2.06.01-4.12"/>
              <path fill="#fff" d="M144.79 74.67l-46.06-26.6-.01 4.12 46.06 26.59.01-4.11"/>
              <path fill="#ff2c9c" d="M88.23 48.52l-3.57-2.07-.01 4.11 3.57 2.07.01-4.11"/>
              <path fill="#42e8e0" d="M135.08 75.56L92.25 50.84l-.01 4.1 42.82 24.73.02-4.11"/>
              <path fill="#ff2c9c" d="M88.21 55l-3.57-2.06-.01 4.11 3.57 2.06.01-4.11"/>
              <path fill="#fff" d="M161.03 97.04l-68.8-39.72-.01 4.11 68.79 39.72.02-4.11"/>
              <path fill="#ff2c9c" d="M88.2 61.49l-3.58-2.06-.01 4.11 3.57 2.06.02-4.11"/>
              <path fill="#42e8e0" d="M126.31 83.5L98.67 67.54l-.01 4.11 27.64 15.96.01-4.11"/>
              <path fill="#ff2c9c" d="M88.18 67.98l-3.58-2.06-.01 4.11 3.58 2.06.01-4.11"/>
              <path fill="#42e8e0" d="M135.02 95.03L92.19 70.3l-.01 4.11 42.83 24.73.01-4.11"/>
              <path fill="#ff2c9c" d="M88.16 74.47l-3.58-2.06-.01 4.11 3.58 2.06.01-4.11"/>
              <path fill="#fff" d="M152.24 111.47l-53.6-30.95-.01 4.11 53.59 30.95.02-4.11"/>
              <path fill="#ff2c9c" d="M88.14 80.96l-3.58-2.07-.01 4.11 3.58 2.07.01-4.11"/>
              <path fill="#42e8e0" d="M115.19 96.57L92.16 83.28l-.02 4.11 23.03 13.29.02-4.11"/>
              <path fill="#fff" d="M105.95 97.75l-13.81-7.98-.01 4.11 13.81 7.98.01-4.11"/>
              <path fill="#ff2c9c" d="M88.12 87.45l-3.57-2.06-.02 4.11 3.58 2.06.01-4.11M88.1 93.94l-3.57-2.07-.01 4.11 3.57 2.07.01-4.11"/>
              <path fill="#fff" d="M126.22 115.94L98.58 99.99l-.01 4.1 27.64 15.96.01-4.11"/>
              <path fill="#ff2c9c" d="M88.09 100.42l-3.58-2.06-.01 4.11 3.57 2.07.02-4.12"/>
              <path fill="#42e8e0" d="M134.93 127.47L92.1 102.74l-.01 4.12 42.83 24.72.01-4.11"/>
              <path fill="#ff2c9c" d="M88.07 106.92l-3.58-2.07-.01 4.11 3.58 2.06.01-4.1"/>
              <path fill="#fff" d="M152.14 143.91l-53.59-30.95-.02 4.11 53.6 30.95.01-4.11"/>
              <path fill="#ff2c9c" d="M88.05 113.4l-3.58-2.06-.01 4.1 3.58 2.07.01-4.11"/>
              <path fill="#42e8e0" d="M115.09 129.02l-23.03-13.3-.01 4.11 23.03 13.29.01-4.1"/>
              <path fill="#ff2c9c" d="M88.03 119.89l-3.58-2.06-.01 4.11 3.58 2.06.01-4.11"/>
              <path fill="#42e8e0" d="M105.86 130.19l-13.81-7.98-.02 4.11 13.82 7.98.01-4.11"/>
              <path fill="#fff" d="M68.17 36.69L58.14 30.9l-.04 11.53 10.04 5.8.03-11.54"/>
              <path fill="#42e8e0" d="M49.52 15.05L31.87 4.86l-.06 20.28 17.65 10.19.06-20.28"/>
              <path fill="#ff2c9c" d="M60 47.97l-16.96-9.8-.05 19.49 16.96 9.79.05-19.48"/>
              <path fill="#fff" d="M170.46 76.65l-10.44-6.03-.03 12 10.43 6.03.04-12"/>
              <path fill="#ff2c9c" d="M180.45 102.01l-8.53-4.93-.02 9.8 8.52 4.92.03-9.79"/>
              <path fill="#42e8e0" d="M208.35 71.07l-25.44-14.69-.02 6.69-.02 7.36-.02 7.9-.02 7.28 25.44 14.69.02-7.28.02-7.91.02-7.35.02-6.69"/>
            </g>
          </g>
        </g>
        <g style="-webkit-animation-fill-mode:backwards;animation-fill-mode:backwards;-webkit-transform:translate(237.26171875px,48.09375px) translate(-237.26171875px,-48.09375px) translate(0,0);transform:translate(237.26171875px,48.09375px) translate(-237.26171875px,-48.09375px) translate(0,0);-webkit-animation-name:kf_el_jwziNrepvIp_an_AqpCUPiu6;animation-name:kf_el_jwziNrepvIp_an_AqpCUPiu6;-webkit-animation-timing-function:cubic-bezier(0,0,1,1);animation-timing-function:cubic-bezier(0,0,1,1)">
          <g style="isolation:isolate" data-animator-group="true" data-animator-type="0">
            <g style="-webkit-clip-path:url(#clip-path-2)" clip-path="url(#clip-path-2)">
              <g id="el_H0vZtxKerhS">
                <path d="M270.46 121.19l-.6.33a2.19 2.19 0 0 0 .6-.33M267.27 93l-23.51-13.55c-1.3-.75-2.46-.76-3.24-.16l.41-.23.59 1.63 23.51 13.58a9.29 9.29 0 0 1 4.23 7.32l-.05 16.71 1.47 2.64a3.47 3.47 0 0 0 .74-2.31l.05-18.3a9.29 9.29 0 0 0-4.2-7.33" style="-webkit-transform:translate(-.01px,-30.77px);transform:translate(-.01px,-30.77px)" fill="#6464dd"/>
                <path d="M240.93 79.06l-.41.23-1.69 1a3.18 3.18 0 0 1 2.69.42l-.59-1.63M269.24 118.31v1.59a3.26 3.26 0 0 1-.88 2.45l1.5-.83.6-.33.3-.17-.05-.07-1.47-2.64" style="-webkit-transform:translate(-.01px,-30.77px);transform:translate(-.01px,-30.77px)" fill="#6464dd"/>
                <path d="M239.49 84.4c0-1.3.92-1.82 2-1.17l23.57 13.57a4.47 4.47 0 0 1 2 3.53v18.3c0 1.29-.92 1.81-2.05 1.16l-23.51-13.58a4.45 4.45 0 0 1-2-3.49l.05-18.29m25.57 9.88L241.55 80.7a3.18 3.18 0 0 0-2.69-.42c-.93.35-1.53 1.35-1.53 2.86l-.06 18.3a9.34 9.34 0 0 0 4.23 7.31l23.5 13.57c1.38.79 2.6.75 3.38 0a3.26 3.26 0 0 0 .88-2.45v-1.59l.05-16.71a9.29 9.29 0 0 0-4.23-7.32" style="-webkit-transform:translate(-.01px,-30.77px);transform:translate(-.01px,-30.77px)" fill="#a5a5f2"/>
                <path d="M251.77 106.1a5.08 5.08 0 0 1-1.45-1.15 2.08 2.08 0 0 1-.41-1.3v-1.54a1.39 1.39 0 0 0-.28-.81 2.85 2.85 0 0 0-.81-.7v-1.16a1.41 1.41 0 0 0 .81.25c.19 0 .28-.19.28-.45v-1.6c0-.5.14-.77.41-.81a2.73 2.73 0 0 1 1.46.53v1.1c-.28-.16-.47-.2-.58-.15s-.16.19-.16.41v1.46c0 .61-.36.77-1 .51v.06a2.08 2.08 0 0 1 1 1.62v1.5a1.21 1.21 0 0 0 .15.6 1.84 1.84 0 0 0 .59.52v1.11m3 1.7v-1.11c.28.16.48.22.58.16s.16-.18.16-.42v-1.52a.53.53 0 0 1 .26-.53 1 1 0 0 1 .74.08v-.06a2.09 2.09 0 0 1-1-1.66v-1.46a1.15 1.15 0 0 0-.15-.59 1.73 1.73 0 0 0-.59-.52v-1.11a7.06 7.06 0 0 1 1.12.78 2.2 2.2 0 0 1 .57.74 2 2 0 0 1 .17.92v1.61a1.29 1.29 0 0 0 .26.76 2.71 2.71 0 0 0 .83.69v1.16a1.53 1.53 0 0 0-.82-.26c-.18 0-.28.2-.28.51v1.54a1.07 1.07 0 0 1-.18.73.58.58 0 0 1-.57.08 4.86 4.86 0 0 1-1.12-.52m10.33-11c1.06.62-22.35-11-22.35-11-1.13-.65-2.05-.13-2.05 1.16 0 0-1.16 15.81-1.22 15.77a4.45 4.45 0 0 0 2 3.49L265 119.79c1.13.65 2.05.13 2.05-1.16v-18.3a4.47 4.47 0 0 0-2-3.53" style="-webkit-transform:translate(-.01px,-30.77px);transform:translate(-.01px,-30.77px)" fill="#6464dd"/>
                <path d="M251.8 97.36a2.73 2.73 0 0 0-1.46-.53c-.27 0-.41.31-.41.81v1.6c0 .26-.09.41-.28.45a1.41 1.41 0 0 1-.81-.25v1.16a2.85 2.85 0 0 1 .81.7 1.39 1.39 0 0 1 .28.81v1.54a2.08 2.08 0 0 0 .41 1.3 5.08 5.08 0 0 0 1.45 1.15V105a1.84 1.84 0 0 1-.59-.52 1.21 1.21 0 0 1-.15-.6v-1.5a2.08 2.08 0 0 0-1-1.62v-.06c.64.26 1 .1 1-.51v-1.47c0-.22 0-.36.16-.41s.3 0 .58.15v-1.1M254.75 99.06v1.11a1.73 1.73 0 0 1 .59.52 1.15 1.15 0 0 1 .15.59v1.46a2.09 2.09 0 0 0 1 1.66v.06a1 1 0 0 0-.74-.08.53.53 0 0 0-.26.53v1.52c0 .24-.05.38-.16.42s-.3 0-.58-.16v1.11a4.86 4.86 0 0 0 1.12.52.58.58 0 0 0 .57-.08 1.07 1.07 0 0 0 .18-.73V106c0-.31.1-.48.28-.51a1.53 1.53 0 0 1 .82.26v-1.16a2.71 2.71 0 0 1-.83-.69 1.29 1.29 0 0 1-.26-.76v-1.64a2 2 0 0 0-.17-.92 2.2 2.2 0 0 0-.57-.74 7.06 7.06 0 0 0-1.12-.78" style="-webkit-transform:translate(-.01px,-30.77px);transform:translate(-.01px,-30.77px)" fill="#fff"/>
                <path d="M265.06 96.8l-23.52-13.57c-1.13-.65-2-.13-2 1.17l-.05 18.29c.06 0 1.22-15.77 1.22-15.77 0-1.29.92-1.81 2.05-1.16 0 0 23.41 11.62 22.35 11" style="-webkit-transform:translate(-.01px,-30.77px);transform:translate(-.01px,-30.77px)" fill="#4343c4"/>
              </g>
            </g>
          </g>
        </g>
        <g style="-webkit-animation-fill-mode:backwards;animation-fill-mode:backwards;-webkit-transform:translate(193.3984375px,0) translate(-193.3984375px,0) translate(0,0);transform:translate(193.3984375px,0) translate(-193.3984375px,0) translate(0,0);-webkit-animation-name:kf_el_KBb_Gz0k-i__an_oue_jiEW1;animation-name:kf_el_KBb_Gz0k-i__an_oue_jiEW1;-webkit-animation-timing-function:cubic-bezier(0,0,1,1);animation-timing-function:cubic-bezier(0,0,1,1)">
          <g style="isolation:isolate" data-animator-group="true" data-animator-type="0">
            <g style="-webkit-clip-path:url(#clip-path-3)" clip-path="url(#clip-path-3)">
              <g id="el_BTfJB0pE2mM">
                <path d="M226.67 73.19l-.58.32a2 2 0 0 0 .58-.32M223.49 45l-23.57-13.65a2.86 2.86 0 0 0-3.22-.16l.4-.23.59 1.63 23.57 13.61a9.32 9.32 0 0 1 4.23 7.33v16.74l1.48 2.65a3.42 3.42 0 0 0 .73-2.32l.06-18.33a9.34 9.34 0 0 0-4.27-7.27" style="-webkit-transform:translate(-.01px,-30.77px);transform:translate(-.01px,-30.77px)" fill="#a5a5f2"/>
                <path d="M197.1 31l-.4.23-1.69 1a3.24 3.24 0 0 1 2.68.43L197.1 31M225.46 70.29v1.6a3.24 3.24 0 0 1-.9 2.46l1.53-.84.58-.32.33-.19v-.08l-1.48-2.65" style="-webkit-transform:translate(-.01px,-30.77px);transform:translate(-.01px,-30.77px)" fill="#a5a5f2"/>
                <path d="M195.65 36.32c0-1.3.92-1.83 2-1.18l23.57 13.61a4.49 4.49 0 0 1 2 3.53l-.06 18.33c0 1.3-.92 1.83-2.05 1.17l-23.56-13.6a4.53 4.53 0 0 1-2-3.5l.05-18.33m25.63 9.9l-23.52-13.64a3.24 3.24 0 0 0-2.68-.43c-.95.35-1.56 1.36-1.56 2.88l-.06 18.33a9.36 9.36 0 0 0 4.24 7.34l23.57 13.6c1.36.79 2.58.75 3.36 0a3.24 3.24 0 0 0 .9-2.46V53.53a9.32 9.32 0 0 0-4.23-7.33" style="-webkit-transform:translate(-.01px,-30.77px);transform:translate(-.01px,-30.77px)" fill="#dedefc"/>
                <path d="M210.93 56.73c.53.31.8.28.8-.08a.75.75 0 0 0-.1-.38 4.13 4.13 0 0 0-.37-.5l-.7-.78a10.05 10.05 0 0 1-.92-1.09 3.35 3.35 0 0 1-.43-.84 2.88 2.88 0 0 1-.13-.9c0-.56.19-.88.56-1a2.47 2.47 0 0 1 1.6.47 7.87 7.87 0 0 1 1.91 1.59l-.45 1a18.8 18.8 0 0 0-.76-.77 3.58 3.58 0 0 0-.73-.55c-.43-.25-.66-.25-.66 0a1 1 0 0 0 .21.53c.15.19.45.53.93 1a8.63 8.63 0 0 1 .93 1.1 3.09 3.09 0 0 1 .44.84 2.66 2.66 0 0 1 .14.88c0 .65-.19 1-.58 1.14a2.56 2.56 0 0 1-1.75-.5 8.39 8.39 0 0 1-1-.68 6.77 6.77 0 0 1-.79-.73v-1.35a11.59 11.59 0 0 0 .93.92 6.66 6.66 0 0 0 .92.68m-5.65-1.17c.33.19.57.21.71 0a1.57 1.57 0 0 0 .22-1V46.9l1.51.87v7.66a2.25 2.25 0 0 1-.58 1.85c-.38.28-.94.21-1.68-.22a5.31 5.31 0 0 1-.9-.64V55a4.64 4.64 0 0 0 .71.53m16-6.81c1.06.61-22.4-11-22.4-11-1.13-.65-2-.13-2.05 1.17 0 0-1.16 15.83-1.22 15.8a4.53 4.53 0 0 0 2 3.5l23.56 13.6c1.13.66 2.05.13 2.05-1.17l.06-18.33a4.49 4.49 0 0 0-2-3.53" style="-webkit-transform:translate(-.01px,-30.77px);transform:translate(-.01px,-30.77px)" fill="#a5a5f2"/>
                <path d="M207.74 47.83l-1.51-.83v7.66a1.57 1.57 0 0 1-.22 1c-.14.16-.38.14-.71 0a4.64 4.64 0 0 1-.71-.53v1.45a5.31 5.31 0 0 0 .9.64c.74.43 1.3.5 1.68.22a2.25 2.25 0 0 0 .58-1.85v-7.66M211.24 51.66a2.47 2.47 0 0 0-1.6-.47c-.37.09-.56.41-.56 1a2.88 2.88 0 0 0 .13.9 3.35 3.35 0 0 0 .43.84 10.05 10.05 0 0 0 .92 1.09l.7.78a4.13 4.13 0 0 1 .37.5.75.75 0 0 1 .1.38c0 .36-.27.39-.8.08a6.66 6.66 0 0 1-.92-.68 11.59 11.59 0 0 1-.93-.92v1.41a6.77 6.77 0 0 0 .79.73 8.39 8.39 0 0 0 1 .68 2.56 2.56 0 0 0 1.75.5c.39-.12.58-.49.58-1.14a2.66 2.66 0 0 0-.14-.88 3.09 3.09 0 0 0-.44-.84 8.63 8.63 0 0 0-.93-1.1c-.48-.5-.78-.84-.93-1a1 1 0 0 1-.21-.53c0-.27.23-.27.66 0a3.58 3.58 0 0 1 .73.55c.23.22.49.48.76.77l.45-1a7.87 7.87 0 0 0-1.91-1.59" style="-webkit-transform:translate(-.01px,-30.77px);transform:translate(-.01px,-30.77px)" fill="#fff"/>
                <path d="M221.27 48.75L197.7 35.14c-1.13-.65-2-.12-2 1.18l-.05 18.33c.06 0 1.22-15.8 1.22-15.8 0-1.3.92-1.82 2.05-1.17 0 0 23.46 11.64 22.4 11" style="-webkit-transform:translate(-.01px,-30.77px);transform:translate(-.01px,-30.77px)" fill="#4343c4"/>
              </g>
            </g>
          </g>
        </g>
        <g id="el_MfBareQA2d1" data-name="&lt;Group&gt;">
          <g data-name="&lt;Group&gt;">
            <path data-name="&lt;Path&gt;" d="M248.7 335.49c.59-.06 6-.84 11.38-8.87 2.57-3.83 4.63-10.83 3.37-16.28a9 9 0 0 0-4.13-6c-5.75-3.32-10.76.26-12.6 2.62l3.5 2.74-1.75-1.37 1.74 1.39c.31-.39 3.13-3.69 6.88-1.53a4.6 4.6 0 0 1 2 3.14c.9 3.89-.69 9.76-2.73 12.79-4.22 6.26-8.12 6.93-8.15 6.94z" style="-webkit-transform:translate(-.01px,-30.77px);transform:translate(-.01px,-30.77px)" fill="#a5a5f2" id="el_n6RCUN0d6UE"/>
          </g>
          <path data-name="&lt;Path&gt;" d="M209.55 302.86l44.88.14-4.08 36c0 2.69-1.82 5.37-5.37 7.42-7.17 4.14-18.79 4.14-26 0-3.56-2.06-5.35-4.75-5.37-7.45z" style="-webkit-transform:translate(-.01px,-30.77px);transform:translate(-.01px,-30.77px)" fill="#6464dd"/>
          <path data-name="&lt;Path&gt;" d="M247.89 293c8.78 5.07 8.78 13.29 0 18.36s-23 5.07-31.79 0-8.78-13.29 0-18.36 23.01-5.09 31.79 0z" style="-webkit-transform:translate(-.01px,-30.77px);transform:translate(-.01px,-30.77px)" fill="#a5a5f2"/>
          <g id="el_gcfL6ah51Tp" data-name="&lt;Clip Group&gt;">
            <path data-name="&lt;Clipping Path&gt;" d="M232 312.17a29.42 29.42 0 0 0 14.42-3.4c3.24-1.87 5.1-4.28 5.1-6.61s-1.86-4.74-5.1-6.61a32.17 32.17 0 0 0-28.83 0c-3.24 1.87-5.1 4.28-5.1 6.61s1.86 4.74 5.1 6.61a29.38 29.38 0 0 0 14.41 3.4z" style="-webkit-transform:translate(-.01px,-30.77px);transform:translate(-.01px,-30.77px)" fill="#6464dd"/>
            <g style="-webkit-clip-path:url(#clip-path-4)" clip-path="url(#clip-path-4)">
              <path data-name="&lt;Path&gt;" d="M232 318.15a29.45 29.45 0 0 0 14.42-3.4c3.24-1.88 5.1-4.29 5.1-6.61s-1.86-4.74-5.1-6.61a32.17 32.17 0 0 0-28.83 0c-3.24 1.87-5.1 4.28-5.1 6.61s1.86 4.73 5.1 6.61a29.38 29.38 0 0 0 14.41 3.4z" style="-webkit-transform:translate(-.01px,-30.77px);transform:translate(-.01px,-30.77px)" fill="#0f054c"/>
            </g>
          </g>
        </g>
        <g style="-webkit-animation-fill-mode:backwards;animation-fill-mode:backwards;-webkit-transform:translate(-.01171875px,84.44921875px) translate(.01171875px,-84.44921875px) translate(0,0);transform:translate(-.01171875px,84.44921875px) translate(.01171875px,-84.44921875px) translate(0,0);-webkit-animation-name:kf_el_d3Iv7XHXbqt_an_1r-buiwDV;animation-name:kf_el_d3Iv7XHXbqt_an_1r-buiwDV;-webkit-animation-timing-function:cubic-bezier(0,0,1,1);animation-timing-function:cubic-bezier(0,0,1,1)">
          <g style="isolation:isolate" data-animator-group="true" data-animator-type="0">
            <g style="-webkit-clip-path:url(#clip-path-5)" clip-path="url(#clip-path-5)">
              <g id="el_Wl_2w4-h6Gb">
                <path d="M33.25 157.54l-.63.34a2.13 2.13 0 0 0 .63-.34M30 129.38L6.53 115.8a2.86 2.86 0 0 0-3.22-.16l.39-.23.6 1.64 23.52 13.58a9.34 9.34 0 0 1 4.25 7.37v16.71l1.47 2.64a3.4 3.4 0 0 0 .73-2.31l.06-18.3a9.32 9.32 0 0 0-4.33-7.36" style="-webkit-transform:translate(-.01px,-30.77px);transform:translate(-.01px,-30.77px)" fill="#42e8e0"/>
                <path d="M3.7 115.41l-.39.23-1.71 1a3.22 3.22 0 0 1 2.7.43l-.6-1.64" style="-webkit-transform:translate(-.01px,-30.77px);transform:translate(-.01px,-30.77px)" fill="#03f4d1"/>
                <path d="M32 154.67v1.59a3.26 3.26 0 0 1-.86 2.44l1.47-.82.63-.34.28-.16v-.07L32 154.67" style="-webkit-transform:translate(-.01px,-30.77px);transform:translate(-.01px,-30.77px)" fill="#42e8e0"/>
                <path d="M2.27 120.76c0-1.29.92-1.82 2-1.17l23.52 13.58a4.46 4.46 0 0 1 2 3.52l.02 18.31c0 1.29-.92 1.81-2 1.16L4.25 142.57a4.47 4.47 0 0 1-2-3.49v-18.3m25.57 9.88l-23.5-13.6a3.22 3.22 0 0 0-2.7-.43 2.81 2.81 0 0 0-1.53 2.87L0 137.78a9.34 9.34 0 0 0 4.23 7.32l23.52 13.58c1.38.8 2.61.75 3.39 0a3.26 3.26 0 0 0 .86-2.44v-18.3a9.34 9.34 0 0 0-4.23-7.32" style="-webkit-transform:translate(-.01px,-30.77px);transform:translate(-.01px,-30.77px)" fill="#cafff9"/>
                <path d="M11.81 133.06l-.7-.41v4.66l.57.33c1.27.73 1.91.32 1.91-1.25a3.53 3.53 0 0 0-1.77-3.33m4.32 8.4V136l1.3.75v5.47l-1.3-.76m4.45 1.34a4.18 4.18 0 0 1 .2-1l.92-2.59 1.36.79-1.83 4.41-1.33-.77-1.8-6.51 1.36.79.91 3.65a8.69 8.69 0 0 1 .19 1.22m-12-6.66l-4.21-4.58v-.7h4.27v1.18l-2.91-.13 2.9 3.1v1.17m14.82 8.55v-1.16l2.92.3-2.91-3.23v-1.17l4.22 4.87v.67l-4.23-.3m-13.66-6.9v-7.15l1.95 1.13a6.41 6.41 0 0 1 2.36 2.29 5.88 5.88 0 0 1 .84 3.07c0 1.17-.29 1.91-.88 2.19s-1.43.12-2.53-.51l-1.76-1m7-2.11a1.27 1.27 0 0 1-.7-1.14c0-.48.24-.59.71-.32a1.25 1.25 0 0 1 .7 1.14c0 .23-.05.38-.18.44s-.29 0-.53-.12m11-2.52c1.06.6-22.35-11-22.35-11-1.12-.65-2-.13-2 1.17 0 0-1.16 15.8-1.22 15.76a4.47 4.47 0 0 0 2 3.49l23.52 13.58c1.12.65 2 .13 2-1.16l.05-18.3a4.46 4.46 0 0 0-2-3.52" style="-webkit-transform:translate(-.01px,-30.77px);transform:translate(-.01px,-30.77px)" fill="#42e8e0"/>
                <path fill="#fff" d="M8.62 100.1l-4.23-.01v.7l4.22 4.58v-1.17l-2.9-3.05 2.91.13v-1.18"/>
                <path d="M11.1 137.31v-4.66l.7.41a3.53 3.53 0 0 1 1.77 3.33c0 1.57-.64 2-1.91 1.25l-.57-.33m.65-5.53l-1.94-1.13v7.15l1.76 1c1.1.63 1.94.81 2.53.51s.87-1 .88-2.19a5.88 5.88 0 0 0-.84-3.07 6.41 6.41 0 0 0-2.36-2.29M17.44 136.75l-1.3-.75v5.46l1.3.76v-5.47m-.64-2.52c-.47-.27-.7-.16-.71.32a1.27 1.27 0 0 0 .7 1.14c.24.14.42.18.53.12s.18-.21.18-.44a1.25 1.25 0 0 0-.7-1.14M23.08 140l-1.36-.79-.92 2.59a4.18 4.18 0 0 0-.2 1 8.69 8.69 0 0 0-.19-1.22l-.91-3.65-1.36-.79 1.8 6.51 1.33.77 1.81-4.42" style="-webkit-transform:translate(-.01px,-30.77px);transform:translate(-.01px,-30.77px)" fill="#fff"/>
                <path fill="#fff" d="M23.44 108.66v1.17l2.9 3.23-2.91-.3v1.17l4.23.29v-.69l-4.22-4.87"/>
                <path d="M27.83 133.17L4.31 119.59c-1.12-.65-2-.12-2 1.17v18.3c.06 0 1.22-15.76 1.22-15.76 0-1.3.92-1.82 2-1.17 0 0 23.41 11.61 22.35 11" style="-webkit-transform:translate(-.01px,-30.77px);transform:translate(-.01px,-30.77px)" fill="#1fc1b5"/>
              </g>
            </g>
          </g>
        </g>
        <g style="-webkit-animation-fill-mode:backwards;animation-fill-mode:backwards;-webkit-transform:translate(24.76171875px,147.23046875px) translate(-24.76171875px,-147.23046875px) translate(0,0);transform:translate(24.76171875px,147.23046875px) translate(-24.76171875px,-147.23046875px) translate(0,0);-webkit-animation-name:kf_el_4p0Xq63MOkC_an_Nl2kUagac;animation-name:kf_el_4p0Xq63MOkC_an_Nl2kUagac;-webkit-animation-timing-function:cubic-bezier(0,0,1,1);animation-timing-function:cubic-bezier(0,0,1,1)">
          <g style="isolation:isolate" data-animator-group="true" data-animator-type="0">
            <g style="-webkit-clip-path:url(#clip-path-6)" clip-path="url(#clip-path-6)">
              <g id="el__10gT1GnH9p">
                <path d="M57.89 220.33l-.58.32a2 2 0 0 0 .58-.32m-3.17-28.17l-23.51-13.58a2.89 2.89 0 0 0-3.22-.17l.39-.22.59 1.63 23.51 13.58a9.33 9.33 0 0 1 4.23 7.33l-.05 16.71 1.47 2.63a3.4 3.4 0 0 0 .73-2.31l.06-18.3a9.32 9.32 0 0 0-4.23-7.31" style="-webkit-transform:translate(-.01px,-30.77px);transform:translate(-.01px,-30.77px)" fill="#ff2c9c"/>
                <path d="M28.38 178.19l-.39.22-1.69 1a3.18 3.18 0 0 1 2.67.43l-.59-1.63M56.69 217.45V219a3.26 3.26 0 0 1-.86 2.44l1.48-.82.58-.32.31-.17v-.08l-1.47-2.63" style="-webkit-transform:translate(-.01px,-30.77px);transform:translate(-.01px,-30.77px)" fill="#ff2c9c"/>
                <path d="M27 183.53c0-1.29.91-1.82 2-1.17l23.5 13.58a4.49 4.49 0 0 1 2 3.53v18.29c0 1.29-.92 1.82-2.05 1.16l-23.53-13.57a4.51 4.51 0 0 1-2-3.5l.08-18.32m25.56 9.88L29 179.83a3.18 3.18 0 0 0-2.67-.43c-.95.35-1.55 1.36-1.56 2.87v18.29a9.29 9.29 0 0 0 4.23 7.32l23.51 13.58c1.38.8 2.62.75 3.4 0a3.26 3.26 0 0 0 .86-2.44v-1.58l.05-16.71a9.33 9.33 0 0 0-4.23-7.33" style="-webkit-transform:translate(-.01px,-30.77px);transform:translate(-.01px,-30.77px)" fill="#ffaee0"/>
                <path d="M38.53 201.94l-4.22-4.58v-.71h4.24v1.17l-2.91-.13 2.91 3v1.18m4.35 2.51v-1.18l2.92.31-2.91-3.23v-1.17l4.2 4.89v.71l-4.23-.3M39 203.18l2.34-5.82 1.18.69-2.34 5.81-1.18-.68m13.54-7.24c1.06.61-22.34-11-22.34-11-1.13-.65-2.05-.13-2.05 1.16 0 0-1.16 15.81-1.21 15.77a4.51 4.51 0 0 0 2 3.5l23.52 13.57c1.13.66 2 .13 2.05-1.16v-18.29a4.49 4.49 0 0 0-2-3.53" style="-webkit-transform:translate(-.01px,-30.77px);transform:translate(-.01px,-30.77px)" fill="#ff2c9c"/>
                <path fill="#fff" d="M38.53 165.9l-4.23-.02v.71l4.22 4.58V170l-2.91-3.06 2.92.13v-1.17M42.47 167.28l-1.18-.69-2.34 5.82 1.18.68 2.34-5.81M42.88 168.41v1.18l2.9 3.22-2.91-.31v1.18l4.23.3v-.71l-4.22-4.86"/>
                <path d="M52.5 195.94L29 182.36c-1.13-.65-2-.12-2 1.17l-.06 18.29c.05 0 1.21-15.77 1.21-15.77 0-1.29.92-1.81 2.05-1.16 0 0 23.4 11.62 22.34 11" style="-webkit-transform:translate(-.01px,-30.77px);transform:translate(-.01px,-30.77px)" fill="#d81a87"/>
              </g>
            </g>
          </g>
        </g>
      </g>
    </g>
  </g>
</svg>
